<svg width="194" height="224" viewBox="0 0 194 224" fill="none" xmlns="http://www.w3.org/2000/svg">
<path d="M70.0744 43.8693C67.272 45.0337 65.944 48.2498 67.1085 51.0522C68.2729 53.8546 71.4889 55.1825 74.2914 54.0181C91.0822 47.0412 110.418 55.0232 117.394 71.8113C118.558 74.6137 121.774 75.9417 124.577 74.7772C127.379 73.6128 128.707 70.3968 127.542 67.5943C118.241 45.2102 92.4615 34.5671 70.0744 43.8693Z" fill="#555BB1" fill-opacity="0.3"/>
<path d="M48.3741 32.0963C27.4386 46.413 16.4996 72.5483 21.1935 97.6493C25.1574 118.845 38.3731 136.287 57.452 145.503C66.778 150.007 74.3428 157.925 78.2184 167.252L82.4354 177.401C85.241 184.153 92.0451 188.053 98.9687 187.506C105.897 198.521 120.143 203.782 132.856 198.5C145.565 193.219 151.892 179.413 148.973 166.728C154.246 162.207 156.282 154.634 153.477 147.882L149.26 137.733C145.376 128.387 145.162 117.548 148.654 107.213C153.767 92.0844 153.208 75.6315 147.081 60.8854C131.117 22.4672 83.8128 7.86365 48.3741 32.0963ZM128.639 188.351C122.116 191.062 114.532 188.95 109.913 183.795L138.621 171.866C139.016 178.776 135.162 185.641 128.639 188.351ZM143.328 152.099C144.491 154.897 143.16 158.119 140.362 159.282L99.767 176.15C96.969 177.312 93.7467 175.982 92.5841 173.184L90.4756 168.109L141.219 147.024L143.328 152.099ZM138.243 103.695C134.521 114.709 134.212 126.255 137.282 136.76L85.9806 158.076C80.7006 148.483 72.2723 140.456 62.2327 135.606C46.3319 127.926 35.311 113.355 31.9965 95.6291C28.1268 74.937 37.2017 53.0509 54.5782 41.1683C84.2416 20.8821 123.642 33.1175 136.932 65.1023C142.036 77.3864 142.502 91.0921 138.243 103.695Z" fill="#555BB1" fill-opacity="0.3"/>
</svg>
