<svg width="335" height="233" viewBox="0 0 335 233" fill="none" xmlns="http://www.w3.org/2000/svg">
<g filter="url(#filter0_d)">
<path d="M272.506 11.0691H59.5053C55.0935 11.0691 51.5171 14.6748 51.5171 19.1227V156.916C51.5171 161.364 55.0935 164.97 59.5053 164.97H272.506C276.918 164.97 280.494 161.364 280.494 156.916V19.1227C280.494 14.6748 276.918 11.0691 272.506 11.0691Z" fill="#333333" stroke="#333333" stroke-miterlimit="10"/>
<path d="M280.489 160.048H51.5167L11.969 215.921L323.427 217.043L280.489 160.048Z" fill="#717171" stroke="#717171" stroke-miterlimit="10"/>
<path d="M323.056 217.79L11.969 216.669L15.306 220.407L316.582 221.775L323.056 217.79Z" fill="#7D7D7D" stroke="#7D7D7D" stroke-miterlimit="10"/>
<path d="M215.703 211.496H126.362L132.575 195.837H210.676L215.703 211.496Z" fill="#666666" stroke="#666666" stroke-miterlimit="10"/>
<path d="M277.057 163.529H54.9493L35.9856 191.365H296.243L277.057 163.529Z" fill="#333333" stroke="#333333" stroke-miterlimit="10"/>
<path d="M265.533 22.7034H68.2546C65.138 22.7034 62.6116 25.2505 62.6116 28.3926V147.652C62.6116 150.794 65.138 153.341 68.2546 153.341H265.533C268.649 153.341 271.176 150.794 271.176 147.652V28.3926C271.176 25.2505 268.649 22.7034 265.533 22.7034Z" fill="#282A36"/>
<path d="M117.892 22.7449L264.699 22.6614C268.255 22.6614 271.134 25.365 271.139 28.7003L271.206 147.255C271.206 150.59 268.328 153.294 264.771 153.299L117.97 153.382" fill="#2D2F3A"/>
<path d="M222.729 51.4985H135.086C134.168 51.4985 133.424 52.2487 133.424 53.174V55.1939C133.424 56.1192 134.168 56.8693 135.086 56.8693H222.729C223.646 56.8693 224.39 56.1192 224.39 55.1939V53.174C224.39 52.2487 223.646 51.4985 222.729 51.4985Z" fill="#006837"/>
<path d="M134.009 63.2427H180.085C180.161 63.2427 180.236 63.2578 180.307 63.2872C180.377 63.3166 180.441 63.3596 180.495 63.4139C180.549 63.4682 180.591 63.5326 180.621 63.6035C180.65 63.6745 180.665 63.7505 180.665 63.8273V65.3357C180.665 65.4921 180.603 65.6421 180.493 65.7527C180.384 65.8633 180.235 65.9255 180.08 65.9255H134.004C133.928 65.9255 133.852 65.9104 133.782 65.881C133.711 65.8516 133.647 65.8085 133.594 65.7543C133.54 65.7 133.497 65.6355 133.468 65.5646C133.439 65.4937 133.424 65.4177 133.424 65.3409V63.8325C133.424 63.6774 133.485 63.5287 133.594 63.4191C133.702 63.3095 133.85 63.2479 134.004 63.2479L134.009 63.2427Z" fill="#FBB03B"/>
<path d="M208.502 63.2427H186.365C186.045 63.2427 185.785 63.5044 185.785 63.8273V65.3409C185.785 65.6637 186.045 65.9255 186.365 65.9255H208.502C208.822 65.9255 209.082 65.6637 209.082 65.3409V63.8273C209.082 63.5044 208.822 63.2427 208.502 63.2427Z" fill="#9E005D"/>
<path d="M184.123 82.2051H135.086C134.168 82.2051 133.424 82.9552 133.424 83.8805V85.9004C133.424 86.8258 134.168 87.5759 135.086 87.5759H184.123C185.041 87.5759 185.785 86.8258 185.785 85.9004V83.8805C185.785 82.9552 185.041 82.2051 184.123 82.2051Z" fill="#006837"/>
<path d="M134.009 93.9485H196.854C197.007 93.9485 197.155 94.0101 197.264 94.1197C197.372 94.2293 197.434 94.378 197.434 94.5331V96.0415C197.434 96.1979 197.372 96.3479 197.262 96.4585C197.152 96.5691 197.004 96.6313 196.848 96.6313H134.009C133.855 96.6313 133.708 96.5697 133.599 96.4601C133.49 96.3504 133.429 96.2017 133.429 96.0467V94.5383C133.429 94.3832 133.49 94.2346 133.599 94.1249C133.708 94.0153 133.855 93.9537 134.009 93.9537V93.9485Z" fill="#FBB03B"/>
<path d="M219.26 93.9485H201.678C201.295 93.9485 200.985 94.2616 200.985 94.6479V95.9319C200.985 96.3181 201.295 96.6313 201.678 96.6313H219.26C219.643 96.6313 219.953 96.3181 219.953 95.9319V94.6479C219.953 94.2616 219.643 93.9485 219.26 93.9485Z" fill="#9E005D"/>
<path d="M158.657 102.112H134.568C133.65 102.112 132.906 102.862 132.906 103.787V105.807C132.906 106.733 133.65 107.483 134.568 107.483H158.657C159.575 107.483 160.319 106.733 160.319 105.807V103.787C160.319 102.862 159.575 102.112 158.657 102.112Z" fill="#006837"/>
<path d="M133.492 113.855H172.113C172.267 113.855 172.414 113.917 172.523 114.027C172.632 114.136 172.693 114.285 172.693 114.44V115.948C172.693 116.105 172.631 116.255 172.521 116.366C172.412 116.476 172.263 116.538 172.108 116.538H133.492C133.338 116.538 133.19 116.477 133.082 116.367C132.973 116.257 132.912 116.109 132.912 115.954V114.445C132.911 114.368 132.926 114.291 132.955 114.22C132.983 114.148 133.026 114.083 133.08 114.029C133.134 113.974 133.198 113.93 133.269 113.9C133.339 113.871 133.415 113.855 133.492 113.855Z" fill="#FBB03B"/>
<path d="M218.814 113.855H176.098C175.752 113.855 175.472 114.138 175.472 114.487V115.907C175.472 116.256 175.752 116.538 176.098 116.538H218.814C219.16 116.538 219.441 116.256 219.441 115.907V114.487C219.441 114.138 219.16 113.855 218.814 113.855Z" fill="#9E005D"/>
<path d="M204.277 129.702H133.532C133.186 129.702 132.906 129.985 132.906 130.334V131.753C132.906 132.102 133.186 132.385 133.532 132.385H204.277C204.623 132.385 204.904 132.102 204.904 131.753V130.334C204.904 129.985 204.623 129.702 204.277 129.702Z" fill="#9E005D"/>
<path d="M106.415 46.8589H70.6158C70.2899 46.8589 70.0256 47.1253 70.0256 47.4539V49.1711C70.0256 49.4997 70.2899 49.7661 70.6158 49.7661H106.415C106.741 49.7661 107.006 49.4997 107.006 49.1711V47.4539C107.006 47.1253 106.741 46.8589 106.415 46.8589Z" fill="white"/>
<path d="M90.4746 53.6804H70.6153C70.2894 53.6804 70.0251 53.9468 70.0251 54.2754V55.9926C70.0251 56.3213 70.2894 56.5876 70.6153 56.5876H90.4746C90.8006 56.5876 91.0648 56.3213 91.0648 55.9926V54.2754C91.0648 53.9468 90.8006 53.6804 90.4746 53.6804Z" fill="white"/>
<path d="M111.427 60.5022H70.7091C70.3831 60.5022 70.1189 60.7686 70.1189 61.0972V62.8144C70.1189 63.143 70.3831 63.4094 70.7091 63.4094H111.427C111.753 63.4094 112.017 63.143 112.017 62.8144V61.0972C112.017 60.7686 111.753 60.5022 111.427 60.5022Z" fill="white"/>
<path d="M108.378 67.0942H70.7091C70.3831 67.0942 70.1189 67.3606 70.1189 67.6893V69.4065C70.1189 69.7351 70.3831 70.0015 70.7091 70.0015H108.378C108.704 70.0015 108.968 69.7351 108.968 69.4065V67.6893C108.968 67.3606 108.704 67.0942 108.378 67.0942Z" fill="white"/>
</g>
<defs>
<filter id="filter0_d" x="0.848877" y="0.569092" width="333.964" height="231.707" filterUnits="userSpaceOnUse" color-interpolation-filters="sRGB">
<feFlood flood-opacity="0" result="BackgroundImageFix"/>
<feColorMatrix in="SourceAlpha" type="matrix" values="0 0 0 0 0 0 0 0 0 0 0 0 0 0 0 0 0 0 127 0"/>
<feOffset/>
<feGaussianBlur stdDeviation="5"/>
<feColorMatrix type="matrix" values="0 0 0 0 0 0 0 0 0 0 0 0 0 0 0 0 0 0 0.25 0"/>
<feBlend mode="normal" in2="BackgroundImageFix" result="effect1_dropShadow"/>
<feBlend mode="normal" in="SourceGraphic" in2="effect1_dropShadow" result="shape"/>
</filter>
</defs>
</svg>
