<svg width="370" height="364" viewBox="0 0 370 364" fill="none" xmlns="http://www.w3.org/2000/svg">
<path d="M217.137 290.324C195.587 244.292 279.034 142.222 279.034 142.222C279.034 142.222 318.124 162.046 322.68 164.356C327.235 166.666 346.545 172.858 357.39 151.474C370.731 125.168 348.088 115.717 348.088 115.717C348.088 115.717 228.463 55.0511 187.39 34.2216C161.012 20.8444 121.888 38.9721 97.267 53.6428C84.1412 61.4899 86.6163 66.8094 101.867 67.708C155.388 70.7402 164.229 83.9065 164.229 83.9065C159.825 100.241 127.054 167.41 102.475 188.013C78.5264 207.001 41.6021 227.719 63.1078 261.812C80.2792 287.701 119.789 272.449 141.513 223.419C153.157 197.545 199.24 101.753 199.24 101.753L239.509 122.174C230.766 136.308 185.705 208.234 170.176 256.526C139.772 334.871 228.161 361.497 264.721 326.927C274.392 317.143 278.06 307.731 278.695 299.552C279.92 284.379 271.657 279.359 269.636 285.721C268.327 289.766 266.095 293.253 263.826 296.264C256.88 305.582 227.892 311.015 217.137 290.324Z" fill="#555BB1" fill-opacity="0.3"/>
</svg>
