<svg width="362" height="323" viewBox="0 0 362 323" fill="none" xmlns="http://www.w3.org/2000/svg">
<path d="M151.361 322.778L140.172 306.032L153.441 297.165C157.654 294.35 160.636 290.833 162.388 286.616C164.351 282.258 162.517 275.866 156.887 267.44L54.068 113.572C48.4379 105.147 43.2341 101.007 38.4564 101.153C33.7486 100.947 29.2884 102.252 25.0757 105.067L11.8058 113.934L0.615979 97.1886L102.352 29.2054C132.262 9.21868 157.546 -0.364307 178.204 0.456502C198.721 1.06667 215.314 10.8503 227.981 29.8073C235.441 40.9709 239.669 51.857 240.664 62.4655C241.659 73.074 240.581 83.0875 237.429 92.506C234.278 101.925 230.106 110.501 224.915 118.235L305.795 157.881C317.323 163.279 326.918 166.465 334.577 167.441C342.096 168.206 348.804 166.617 354.702 162.676L355.966 161.832L367.156 178.577L356.729 185.544C344.091 193.99 333.067 200.29 323.656 204.446C314.246 208.601 305.36 210.578 296.998 210.376C288.707 209.823 279.746 207.128 270.114 202.29L186.068 157.905L165.215 171.84L206.808 234.082C212.438 242.507 217.536 246.718 222.103 246.713C226.881 246.567 231.376 245.087 235.589 242.272L249.175 233.193L260.364 249.938L151.361 322.778ZM170.663 141.691C185.197 131.98 192.598 121.397 192.867 109.944C193.135 98.4911 188.132 85.0764 177.857 69.7001C167.16 53.692 156.611 44.2882 146.209 41.489C135.807 38.6898 123.55 42.0054 109.438 51.4357L92.3762 62.8366L152.97 153.515L170.663 141.691Z" fill="#292B4D"/>
</svg>
