<svg width="74" height="128" viewBox="0 0 74 128" fill="none" xmlns="http://www.w3.org/2000/svg">
<path opacity="0.44" d="M35.1614 20.9298C37.0028 28.4028 42.498 36.1538 42.498 36.1538C42.498 36.1538 47.9932 42.4843 42.498 46.9311C36.2547 51.9955 37.0028 53.941 37.0028 53.941C37.0028 53.941 46.1806 51.7794 47.9932 48.784C50.2086 45.1092 54.3803 33.004 47.9932 26.0868C43.246 20.9606 51.6471 2 51.6471 2C51.6471 2 33.3489 13.4258 35.1614 20.9298Z" fill="#848484" stroke="#848484" stroke-miterlimit="10"/>
<g filter="url(#filter0_d)">
<path d="M58.7009 50.0391H27.4846C22.8525 50.0391 19.1123 54.0535 19.1123 59.0253V107.014C19.1123 111.985 22.8525 116 27.4846 116H58.7297C63.3618 116 67.102 111.985 67.102 107.014V59.0253C67.102 54.0535 63.333 50.0391 58.7009 50.0391Z" fill="#DFDFDF" stroke="#DFDFDF" stroke-width="3" stroke-miterlimit="10"/>
<path d="M19.6591 69.2468H8.32345C8.32345 69.2468 7 69.6792 7 71.9952C7 74.3112 7 94.9394 7 94.9394C7 94.9394 7.17261 95.835 9.12902 95.835C11.1142 95.835 19.6591 95.835 19.6591 95.835V92.469L12.4377 92.2837C12.4377 92.2837 10.9704 92.0984 11.1142 90.8632C11.2581 89.628 11.2868 72.8599 11.2868 72.8599C11.2868 72.8599 11.2868 71.9643 12.4377 71.9643C13.5885 71.9643 19.6591 71.9643 19.6591 71.9643V69.2468Z" fill="#DFDFDF" stroke="#DFDFDF" stroke-width="3" stroke-miterlimit="10"/>
<path d="M20.4071 96.4214L18.7959 98.7683V96.4214H20.4071Z" fill="#B3B3B3" stroke="#B3B3B3" stroke-miterlimit="10"/>
<path d="M20.2355 72.6125L18.8257 73.8478V72.6125H20.2355Z" fill="#B3B3B3" stroke="#B3B3B3" stroke-miterlimit="10"/>
<path d="M65.6635 69.2468H40.2014C39.2519 69.2468 38.5039 70.0806 38.5039 71.0688V93.9512C38.5039 94.9703 39.2807 95.7732 40.2014 95.7732H65.6635C66.6129 95.7732 67.361 94.9394 67.361 93.9512V71.0688C67.361 70.0806 66.6129 69.2468 65.6635 69.2468Z" fill="#FBB03B" stroke="#FBB03B" stroke-miterlimit="10"/>
<path d="M46.9625 75.5154H48.7751V85.5515C48.7751 89.5351 46.9625 90.7395 44.5458 90.7395C43.8841 90.7395 43.0785 90.5851 42.6182 90.3689L42.8771 88.794C43.2511 88.9484 43.7978 89.0719 44.4019 89.0719C46.0131 89.0719 46.9625 88.2999 46.9625 85.3663V75.5154Z" fill="white" stroke="white" stroke-miterlimit="10"/>
<path d="M54.0108 85.7995L52.5722 90.5242H50.7021L55.4493 75.5471H57.6359L62.4118 90.5242H60.4842L58.9881 85.7995H54.0108ZM58.5853 84.2863L57.2043 79.963C56.8879 78.9749 56.6865 78.1102 56.4851 77.2147H56.4563C56.2549 78.1102 56.0247 79.0057 55.7658 79.9322L54.3848 84.2554H58.5853V84.2863Z" fill="white" stroke="white" stroke-miterlimit="10"/>
<path d="M67.4472 88.4234C67.0732 86.6941 66.5553 84.903 65.9799 82.8958L63.7933 75.5154H61.8369L66.3827 90.4924H67.3609C67.4185 89.4425 67.4472 88.5778 67.4472 88.4234Z" fill="white" stroke="white" stroke-miterlimit="10"/>
</g>
<defs>
<filter id="filter0_d" x="0.5" y="48.5391" width="73.102" height="78.9608" filterUnits="userSpaceOnUse" color-interpolation-filters="sRGB">
<feFlood flood-opacity="0" result="BackgroundImageFix"/>
<feColorMatrix in="SourceAlpha" type="matrix" values="0 0 0 0 0 0 0 0 0 0 0 0 0 0 0 0 0 0 127 0"/>
<feOffset dy="5"/>
<feGaussianBlur stdDeviation="2.5"/>
<feColorMatrix type="matrix" values="0 0 0 0 0 0 0 0 0 0 0 0 0 0 0 0 0 0 0.25 0"/>
<feBlend mode="normal" in2="BackgroundImageFix" result="effect1_dropShadow"/>
<feBlend mode="normal" in="SourceGraphic" in2="effect1_dropShadow" result="shape"/>
</filter>
</defs>
</svg>
