<svg width="272" height="271" viewBox="0 0 272 271" fill="none" xmlns="http://www.w3.org/2000/svg">
<mask id="mask0" mask-type="alpha" maskUnits="userSpaceOnUse" x="0" y="0" width="271" height="271">
<circle cx="135.432" cy="135.432" r="135.432" fill="#2A2D5C"/>
</mask>
<g mask="url(#mask0)">
<circle cx="135.432" cy="135.432" r="135.432" fill="#2A2D5C"/>
<g filter="url(#filter0_d)">
<path d="M148.73 384.781C176.816 384.781 189.244 390.286 202.109 392.778C214.401 395.162 244.234 401.741 254.75 395.119C266.921 387.466 263.678 367.306 251.607 362.666C234.261 356.001 253.476 346.029 270.386 369.196C279.693 381.91 270.68 405.299 257.707 409.287C246.202 412.866 228.068 411.599 209.633 411.27C190.611 410.926 160.443 409.022 160.443 409.022C107.336 409.051 65.5624 421.708 45.0514 388.246C22.6361 351.634 71.7049 279.226 93.5189 224.867C97.5052 214.974 99.8088 204.485 100.334 193.832L173.2 193.324L193.876 376.326C195.644 380.353 197.659 384.268 199.911 388.046C202.059 391.518 205.252 395.556 207.07 396.372" fill="#232323"/>
<path d="M154.729 264.285L146.503 267.564L152.231 290.488L151.994 271.108L156.691 266.698L162.962 260.29L154.729 264.285Z" fill="#1A1A1A"/>
<path d="M203.498 147.569C203.5 134.338 199.578 121.403 192.228 110.401C184.878 99.3994 174.43 90.8242 162.206 85.7601C149.982 80.6961 136.531 79.3708 123.554 81.9517C110.577 84.5326 98.6571 90.9039 89.3012 100.26C79.9453 109.616 73.574 121.536 70.9931 134.513C68.4121 147.49 69.7375 160.941 74.8015 173.165C79.8655 185.389 88.4408 195.836 99.4427 203.186C110.445 210.536 123.379 214.458 136.61 214.457C154.35 214.455 171.362 207.407 183.905 194.864C196.449 182.32 203.497 165.308 203.498 147.569Z" fill="#232323"/>
<path d="M201.422 155.967L216.456 206.138C217.459 209.482 214.624 212.761 210.65 212.868L142.896 214.736C140.39 214.808 139.052 212.195 140.791 210.627L200.105 157.105L201.422 155.967Z" fill="#232323"/>
<path d="M71.5405 155.502L56.6995 205.838C55.7116 209.188 58.5036 212.481 62.4269 212.589L129.229 214.457C131.699 214.529 133.023 211.916 131.305 210.341L72.8291 156.647L71.5405 155.502Z" fill="#232323"/>
<path d="M203.269 148.858C203.269 148.858 207.751 59.3181 200.95 58.1583C186.911 55.8173 163.536 89.9021 163.536 98.9655C163.536 120.536 202.081 147.719 202.081 147.719L203.269 148.858Z" fill="#232323"/>
<path d="M69.6651 148.7C69.6651 148.7 65.1835 59.132 71.9847 58.0009C86.0238 55.6598 109.398 89.7446 109.398 98.8081C109.398 120.379 70.8535 147.562 70.8535 147.562L69.6651 148.7Z" fill="#232323"/>
<path d="M97.106 213.262L173.917 232.899L171.554 213.684L98.5449 213.19L97.106 213.262Z" fill="#1A1A1A"/>
<path d="M123.087 126.027H87.7775C85.3927 126.027 83.1056 126.975 81.4193 128.661C79.733 130.347 78.7856 132.634 78.7856 135.019V153.318C78.7875 155.702 79.7355 157.988 81.4214 159.674C83.1073 161.36 85.3933 162.308 87.7775 162.31H123.087C125.471 162.308 127.757 161.36 129.443 159.674C131.129 157.988 132.077 155.702 132.078 153.318V135.019C132.078 132.634 131.131 130.347 129.445 128.661C127.758 126.975 125.471 126.027 123.087 126.027Z" fill="#999999"/>
<path d="M184.312 126.027H149.003C146.618 126.027 144.331 126.975 142.645 128.661C140.959 130.347 140.011 132.634 140.011 135.019V153.318C140.011 155.703 140.959 157.99 142.645 159.676C144.331 161.363 146.618 162.31 149.003 162.31H184.312C186.696 162.308 188.981 161.36 190.666 159.674C192.35 157.988 193.297 155.702 193.297 153.318V135.019C193.298 133.839 193.066 132.67 192.615 131.579C192.164 130.488 191.502 129.496 190.668 128.661C189.833 127.826 188.843 127.164 187.752 126.712C186.662 126.26 185.493 126.027 184.312 126.027Z" fill="#999999"/>
<path d="M131.585 165.71H140.498C140.708 165.709 140.915 165.761 141.099 165.862C141.284 165.963 141.44 166.109 141.552 166.286C141.664 166.464 141.73 166.667 141.742 166.877C141.754 167.087 141.713 167.296 141.622 167.486L137.169 176.879C137.067 177.091 136.908 177.27 136.709 177.395C136.51 177.521 136.28 177.587 136.045 177.587C135.81 177.587 135.579 177.521 135.38 177.395C135.181 177.27 135.022 177.091 134.921 176.879L130.461 167.486C130.371 167.296 130.332 167.087 130.345 166.878C130.358 166.669 130.423 166.467 130.535 166.29C130.648 166.113 130.802 165.967 130.986 165.866C131.169 165.764 131.375 165.711 131.585 165.71Z" fill="#F4ABE5"/>
<path d="M117.76 169.999H77.7404C77.5348 169.999 77.3682 170.165 77.3682 170.371V171.273C77.3682 171.479 77.5348 171.645 77.7404 171.645H117.76C117.966 171.645 118.132 171.479 118.132 171.273V170.371C118.132 170.165 117.966 169.999 117.76 169.999Z" fill="#333333"/>
<path d="M117.444 176.487L77.814 182.056C77.6104 182.085 77.4685 182.273 77.4971 182.477L77.6227 183.37C77.6513 183.574 77.8395 183.716 78.0431 183.687L117.673 178.117C117.877 178.089 118.019 177.9 117.99 177.697L117.865 176.804C117.836 176.6 117.648 176.458 117.444 176.487Z" fill="#333333"/>
<path d="M152.904 171.646H192.924C193.13 171.646 193.296 171.479 193.296 171.273V170.371C193.296 170.166 193.13 169.999 192.924 169.999H152.904C152.699 169.999 152.532 170.166 152.532 170.371V171.273C152.532 171.479 152.699 171.646 152.904 171.646Z" fill="#333333"/>
<path d="M152.985 178.125L192.616 183.695C192.819 183.723 193.008 183.581 193.036 183.378L193.162 182.485C193.19 182.281 193.048 182.093 192.845 182.064L153.215 176.494C153.011 176.466 152.823 176.608 152.794 176.811L152.669 177.705C152.64 177.908 152.782 178.096 152.985 178.125Z" fill="#333333"/>
<path d="M140.019 141.09H132.079V147.097H140.019V141.09Z" fill="#8C6239"/>
<path d="M95.0579 133.015C95.8311 132.12 95.4946 131.389 94.342 131.389H87.011C86.4414 131.389 85.8951 131.616 85.4923 132.018C85.0896 132.421 84.8633 132.968 84.8633 133.537L84.9062 142.644C84.9062 143.825 85.5506 144.075 86.3381 143.159L95.0579 133.015Z" fill="#CCCCCC"/>
</g>
</g>
<path d="M233.591 256.401H262.646L271.89 270.488H223.465L233.591 256.401Z" fill="black" fill-opacity="0.08"/>
<path opacity="0.44" d="M240.833 183.558C242.404 189.188 246.99 195 246.99 195C246.99 195 251.615 199.756 246.99 203.095C241.736 206.901 242.372 208.371 242.372 208.371C242.372 208.371 250.092 206.758 251.615 204.504C253.484 201.73 256.97 192.618 251.615 187.425C247.626 183.566 254.693 169.29 254.693 169.29C254.693 169.29 239.286 177.92 240.833 183.558Z" fill="#CCCCCC" stroke="#CCCCCC" stroke-miterlimit="10"/>
<path d="M257.787 205.672H237.629C234.946 205.674 232.374 206.699 230.477 208.521C228.58 210.342 227.515 212.812 227.515 215.388V245.62C227.515 248.194 228.581 250.664 230.477 252.484C232.374 254.305 234.947 255.328 237.629 255.328H257.787C260.469 255.328 263.042 254.305 264.939 252.484C266.835 250.664 267.901 248.194 267.901 245.62V215.388C267.901 212.812 266.836 210.342 264.939 208.521C263.043 206.699 260.47 205.674 257.787 205.672Z" fill="#AFAFAF" stroke="#AFAFAF" stroke-width="3" stroke-miterlimit="10"/>
<path d="M227.995 220.144H218.454C218.454 220.144 217.347 220.476 217.347 222.202V239.469C217.347 239.469 217.488 240.133 219.145 240.133H227.995V237.608L221.909 237.479C221.909 237.479 220.66 237.344 220.802 236.417C220.943 235.49 220.943 222.85 220.943 222.85C220.943 222.85 220.943 222.187 221.909 222.187H227.995V220.121V220.144Z" fill="#AFAFAF" stroke="#AFAFAF" stroke-width="3" stroke-miterlimit="10"/>
<path d="M228.082 241.61L226.739 243.374V241.61H228.082Z" fill="#878787" stroke="#878787" stroke-miterlimit="10"/>
<path d="M227.963 223.747L226.77 224.674V223.747H227.963Z" fill="#878787" stroke="#878787" stroke-miterlimit="10"/>
<path d="M265.201 220.144H246.794C246.018 220.146 245.274 220.443 244.725 220.969C244.177 221.496 243.867 222.21 243.865 222.955V237.321C243.867 238.066 244.177 238.78 244.725 239.307C245.274 239.834 246.018 240.131 246.794 240.133H265.201C265.977 240.133 266.722 239.836 267.272 239.309C267.821 238.782 268.13 238.067 268.13 237.321V222.955C268.13 222.21 267.821 221.495 267.272 220.967C266.722 220.44 265.977 220.144 265.201 220.144Z" fill="#D69238" stroke="#D69238" stroke-miterlimit="10"/>
<path d="M250.955 224.862H252.471V232.399C252.471 235.414 250.939 236.311 248.914 236.311C248.362 236.309 247.815 236.217 247.296 236.04L247.524 234.849C247.93 234.996 248.361 235.07 248.796 235.067C250.154 235.067 250.963 234.479 250.963 232.271V224.854L250.955 224.862Z" fill="#DBDBDB" stroke="#DBDBDB" stroke-miterlimit="10"/>
<path d="M256.9 232.587L255.683 236.137H254.113L258.102 224.832H259.939L263.944 236.137H262.327L261.07 232.587H256.9ZM260.748 231.449L259.602 228.208C259.343 227.455 259.17 226.799 258.989 226.151H258.95C258.777 226.821 258.589 227.507 258.361 228.193L257.215 231.449H260.748Z" fill="#DBDBDB" stroke="#DBDBDB" stroke-miterlimit="10"/>
<path d="M268.192 234.57C267.886 233.266 267.454 231.917 266.959 230.417L265.122 224.862H263.488L267.32 236.168H268.106C268.168 235.324 268.192 234.683 268.192 234.57Z" fill="#DBDBDB" stroke="#DBDBDB" stroke-miterlimit="10"/>
<defs>
<filter id="filter0_d" x="19.3193" y="41.8859" width="274.892" height="393.871" filterUnits="userSpaceOnUse" color-interpolation-filters="sRGB">
<feFlood flood-opacity="0" result="BackgroundImageFix"/>
<feColorMatrix in="SourceAlpha" type="matrix" values="0 0 0 0 0 0 0 0 0 0 0 0 0 0 0 0 0 0 127 0"/>
<feOffset dy="4"/>
<feGaussianBlur stdDeviation="10"/>
<feColorMatrix type="matrix" values="0 0 0 0 0 0 0 0 0 0 0 0 0 0 0 0 0 0 0.25 0"/>
<feBlend mode="normal" in2="BackgroundImageFix" result="effect1_dropShadow"/>
<feBlend mode="normal" in="SourceGraphic" in2="effect1_dropShadow" result="shape"/>
</filter>
</defs>
</svg>
