<svg width="486" height="455" viewBox="0 0 486 455" fill="none" xmlns="http://www.w3.org/2000/svg">
<path d="M119 397L134.527 374H395.986L404 397H119Z" fill="black" fill-opacity="0.08"/>
<path d="M467.571 313.699C408.06 478.665 103.867 506.085 20.5001 356C-36.0285 254.232 41.8228 207.699 89.082 93.1403C136.341 -21.418 321.752 -26.1627 416.187 60.7841C490.334 129.051 501.772 218.892 467.571 313.699Z" fill="#2A2D5C"/>
<path d="M326.325 116.937C326.325 104.801 322.832 92.9366 316.286 82.8455C309.741 72.7543 300.438 64.8894 289.554 60.2453C278.67 55.6011 266.693 54.3865 255.139 56.7548C243.584 59.1232 232.971 64.9682 224.641 73.5508C216.312 82.1333 210.64 93.0678 208.342 104.971C206.045 116.875 207.226 129.213 211.735 140.426C216.245 151.638 223.88 161.221 233.676 167.962C243.473 174.704 254.989 178.301 266.77 178.3C274.592 178.3 282.337 176.712 289.563 173.629C296.789 170.545 303.354 166.025 308.885 160.327C314.415 154.628 318.802 147.864 321.794 140.419C324.787 132.974 326.326 124.995 326.325 116.937Z" fill="#222222"/>
<path d="M324.472 124.668L337.867 170.689C338.756 173.754 336.205 176.759 332.699 176.862L272.371 178.574C270.144 178.634 268.947 176.245 270.501 174.807L323.309 125.703L324.472 124.668Z" fill="#222222"/>
<path d="M208.827 124.222L195.615 170.39C194.734 173.463 197.227 176.485 200.717 176.579L260.189 178.291C262.391 178.351 263.563 175.954 262.042 174.507L209.974 125.258L208.827 124.222Z" fill="#222222"/>
<path d="M326.118 118.126C326.118 118.126 330.106 35.9443 324.057 34.9256C311.551 32.7769 290.744 64.0315 290.744 72.3696C290.744 92.1531 325.062 117.081 325.062 117.081L326.118 118.126Z" fill="#222222"/>
<path d="M207.124 117.981C207.124 117.981 203.135 35.7996 209.193 34.7809C221.658 32.6407 242.506 63.8868 242.506 72.2249C242.506 92.0084 208.188 116.937 208.188 116.937L207.124 117.981Z" fill="#222222"/>
<path d="M236.324 177.889L226.934 219.587C226.868 219.879 226.865 220.183 226.926 220.476C226.987 220.77 227.109 221.046 227.286 221.284C227.462 221.523 227.687 221.719 227.945 221.858C228.203 221.996 228.488 222.075 228.779 222.087L295.854 225.006C296.132 225.019 296.41 224.971 296.669 224.866C296.928 224.76 297.162 224.599 297.357 224.394C297.551 224.189 297.702 223.944 297.798 223.674C297.894 223.405 297.934 223.118 297.915 222.832L294.824 175.021C294.792 174.503 294.57 174.017 294.202 173.663C293.835 173.308 293.35 173.111 292.846 173.112H241.709C241.218 173.109 240.744 173.295 240.379 173.634L236.931 176.836C236.632 177.12 236.421 177.49 236.324 177.897" fill="#222222"/>
<path d="M236.1 178.223L295.763 188.881L295.056 177.932L236.482 177.632L236.1 178.223Z" fill="#1A1A1A"/>
<path d="M254.729 97.1709H223.286C221.163 97.1732 219.127 98.0437 217.627 99.591C216.126 101.138 215.284 103.236 215.284 105.423V122.211C215.284 124.397 216.127 126.494 217.627 128.04C219.128 129.586 221.164 130.454 223.286 130.454H254.729C256.852 130.454 258.887 129.586 260.388 128.04C261.888 126.494 262.731 124.397 262.731 122.211V105.432C262.733 104.348 262.526 103.275 262.125 102.273C261.723 101.272 261.134 100.361 260.391 99.5941C259.648 98.827 258.766 98.2181 257.794 97.8024C256.823 97.3866 255.781 97.1721 254.729 97.1709Z" fill="#999999"/>
<path d="M309.241 97.1709H277.798C275.674 97.1732 273.639 98.0437 272.139 99.591C270.638 101.138 269.795 103.236 269.795 105.423V122.211C269.798 124.396 270.641 126.492 272.142 128.037C273.642 129.583 275.676 130.452 277.798 130.454H309.241C311.363 130.454 313.399 129.586 314.899 128.04C316.4 126.494 317.243 124.397 317.243 122.211V105.432C317.244 104.348 317.038 103.275 316.637 102.273C316.235 101.272 315.646 100.361 314.903 99.5941C314.16 98.827 313.277 98.2181 312.306 97.8024C311.334 97.3866 310.293 97.1721 309.241 97.1709Z" fill="#999999"/>
<path d="M406.371 199.119L125.15 200.112C124.304 200.115 123.468 200.304 122.698 200.667C121.928 201.029 121.242 201.556 120.685 202.213C120.128 202.87 119.714 203.642 119.469 204.476C119.225 205.311 119.156 206.19 119.267 207.055L138.919 359.981C139.107 361.458 139.81 362.813 140.897 363.795C141.984 364.776 143.381 365.316 144.827 365.314H387.733C389.184 365.313 390.586 364.766 391.673 363.777C392.761 362.787 393.461 361.422 393.641 359.938L412.305 206.053C412.408 205.188 412.332 204.31 412.081 203.477C411.83 202.645 411.41 201.876 410.849 201.224C410.288 200.571 409.599 200.049 408.827 199.692C408.055 199.335 407.218 199.151 406.371 199.153" fill="#798C8E"/>
<path d="M394.813 357.25H136.7C136.303 357.25 135.909 357.331 135.541 357.488C135.174 357.645 134.84 357.876 134.559 358.166C134.278 358.456 134.055 358.801 133.904 359.18C133.752 359.559 133.675 359.965 133.676 360.375V370.69C133.675 371.1 133.752 371.506 133.904 371.885C134.055 372.264 134.278 372.609 134.559 372.899C134.84 373.19 135.174 373.42 135.541 373.577C135.909 373.734 136.303 373.815 136.7 373.815H394.813C395.212 373.816 395.606 373.736 395.975 373.579C396.343 373.423 396.678 373.193 396.96 372.902C397.242 372.612 397.465 372.267 397.617 371.887C397.769 371.508 397.847 371.101 397.846 370.69V360.375C397.847 359.964 397.769 359.557 397.617 359.178C397.465 358.798 397.242 358.453 396.96 358.163C396.678 357.873 396.343 357.642 395.975 357.486C395.606 357.329 395.212 357.249 394.813 357.25Z" fill="#5E6C6D"/>
<path d="M272.845 290.94C272.845 290.94 265.732 290.084 262.308 286.095C261.669 285.35 263.796 281.96 263.796 281.96C263.796 281.96 262.475 270.703 263.555 268.1C264.328 266.242 268.915 272.124 268.915 272.124C270.166 271.602 271.496 271.312 272.845 271.268" fill="#151A1E"/>
<path d="M272.845 290.94C272.845 290.94 279.958 290.084 283.381 286.095C284.021 285.35 281.894 281.96 281.894 281.96C281.894 281.96 283.215 270.703 282.135 268.1C281.362 266.242 276.783 272.124 276.783 272.124C275.529 271.603 274.196 271.313 272.845 271.268" fill="#9A9B9B"/>
<path d="M262.3 133.579H270.277C270.464 133.579 270.649 133.627 270.813 133.721C270.977 133.814 271.115 133.948 271.215 134.112C271.315 134.275 271.373 134.462 271.383 134.655C271.393 134.848 271.356 135.04 271.274 135.214L267.31 143.826C267.219 144.02 267.077 144.183 266.899 144.297C266.722 144.411 266.518 144.472 266.309 144.472C266.1 144.472 265.895 144.411 265.718 144.297C265.541 144.183 265.399 144.02 265.308 143.826L261.336 135.214C261.257 135.043 261.221 134.854 261.231 134.665C261.241 134.476 261.296 134.292 261.391 134.13C261.487 133.968 261.62 133.833 261.778 133.737C261.937 133.641 262.116 133.587 262.3 133.579Z" fill="#F4ABE5"/>
<path d="M249.885 137.518H214.453C214.214 137.518 214.021 137.717 214.021 137.963V138.588C214.021 138.834 214.214 139.033 214.453 139.033H249.885C250.124 139.033 250.317 138.834 250.317 138.588V137.963C250.317 137.717 250.124 137.518 249.885 137.518Z" fill="#333333"/>
<path d="M249.616 143.528L214.524 148.578C214.288 148.612 214.123 148.837 214.157 149.08L214.242 149.699C214.275 149.943 214.494 150.112 214.73 150.078L249.821 145.029C250.058 144.995 250.222 144.77 250.189 144.526L250.104 143.908C250.071 143.664 249.852 143.494 249.616 143.528Z" fill="#333333"/>
<path d="M281.378 139.024H316.811C317.049 139.024 317.243 138.824 317.243 138.578V137.954C317.243 137.708 317.049 137.508 316.811 137.508H281.378C281.14 137.508 280.946 137.708 280.946 137.954V138.578C280.946 138.824 281.14 139.024 281.378 139.024Z" fill="#333333"/>
<path d="M281.601 144.794L316.679 149.904C316.915 149.939 317.134 149.769 317.167 149.526L317.252 148.907C317.285 148.664 317.121 148.439 316.885 148.404L281.807 143.294C281.571 143.259 281.352 143.429 281.319 143.672L281.234 144.291C281.2 144.534 281.365 144.759 281.601 144.794Z" fill="#333333"/>
<path d="M269.795 110.996H262.732V116.509H269.795V110.996Z" fill="#8C6239"/>
<path d="M229.394 104.019C230.291 102.949 229.901 102.076 228.563 102.076H223.22C222.559 102.076 221.925 102.346 221.457 102.828C220.99 103.31 220.727 103.963 220.727 104.644V111.801C220.727 113.213 221.475 113.513 222.389 112.417L229.394 104.019Z" fill="#CCCCCC"/>
<path d="M64.5 367H97.5L108 383H53L64.5 367Z" fill="black" fill-opacity="0.08"/>
<path opacity="0.44" d="M72.726 284.267C74.5098 290.662 79.7184 297.262 79.7184 297.262C79.7184 297.262 84.9715 302.664 79.7184 306.457C73.7517 310.78 74.4741 312.449 74.4741 312.449C74.4741 312.449 83.2413 310.617 84.9715 308.057C87.0942 304.907 91.0542 294.557 84.9715 288.659C80.4408 284.276 88.4677 268.062 88.4677 268.062C88.4677 268.062 70.969 277.864 72.726 284.267Z" fill="#CCCCCC" stroke="#CCCCCC" stroke-miterlimit="10"/>
<path d="M91.9819 309.384H69.0874C66.04 309.386 63.1182 310.55 60.9641 312.619C58.8101 314.688 57.6001 317.494 57.6001 320.419V354.755C57.6001 357.68 58.8104 360.484 60.9647 362.552C63.119 364.62 66.0408 365.781 69.0874 365.781H91.9819C95.0285 365.781 97.9504 364.62 100.105 362.552C102.259 360.484 103.469 357.68 103.469 354.755V320.419C103.469 317.494 102.259 314.688 100.105 312.619C97.9511 310.55 95.0293 309.386 91.9819 309.384Z" fill="#AFAFAF" stroke="#AFAFAF" stroke-width="3" stroke-miterlimit="10"/>
<path d="M58.1442 325.82H47.3078C47.3078 325.82 46.0503 326.197 46.0503 328.157V347.77C46.0503 347.77 46.2108 348.523 48.0927 348.523H58.1442V345.655L51.2321 345.51C51.2321 345.51 49.814 345.356 49.9746 344.303C50.1351 343.25 50.1351 328.894 50.1351 328.894C50.1351 328.894 50.1351 328.14 51.2321 328.14H58.1442V325.795V325.82Z" fill="#AFAFAF" stroke="#AFAFAF" stroke-width="3" stroke-miterlimit="10"/>
<path d="M58.2424 350.201L56.7173 352.204V350.201H58.2424Z" fill="#878787" stroke="#878787" stroke-miterlimit="10"/>
<path d="M58.1085 329.913L56.7529 330.965V329.913H58.1085Z" fill="#878787" stroke="#878787" stroke-miterlimit="10"/>
<path d="M100.401 325.82H79.4956C78.6141 325.823 77.7693 326.16 77.1459 326.758C76.5225 327.357 76.1713 328.167 76.1689 329.014V345.33C76.1713 346.176 76.5225 346.987 77.1459 347.585C77.7693 348.184 78.6141 348.521 79.4956 348.523H100.401C101.283 348.523 102.13 348.187 102.753 347.588C103.377 346.989 103.728 346.177 103.728 345.33V329.014C103.728 328.167 103.377 327.355 102.753 326.756C102.13 326.157 101.283 325.82 100.401 325.82Z" fill="#D69238" stroke="#D69238" stroke-miterlimit="10"/>
<path d="M84.2225 331.179H85.9439V339.74C85.9439 343.164 84.2047 344.183 81.9037 344.183C81.2775 344.18 80.6563 344.076 80.0664 343.875L80.3251 342.522C80.7868 342.689 81.2765 342.773 81.7699 342.77C83.3128 342.77 84.2315 342.103 84.2315 339.594V331.171L84.2225 331.179Z" fill="#DBDBDB" stroke="#DBDBDB" stroke-miterlimit="10"/>
<path d="M90.9743 339.954L89.5919 343.986H87.8081L92.3388 331.145H94.4258L98.9744 343.986H97.1371L95.7101 339.954H90.9743ZM95.3445 338.661L94.0423 334.98C93.748 334.124 93.5518 333.379 93.3467 332.643H93.3021C93.1058 333.405 92.8918 334.184 92.6332 334.963L91.331 338.661H95.3445Z" fill="#DBDBDB" stroke="#DBDBDB" stroke-miterlimit="10"/>
<path d="M103.799 342.205C103.452 340.724 102.961 339.192 102.399 337.489L100.312 331.179H98.457L102.809 344.02H103.701C103.773 343.061 103.799 342.334 103.799 342.205Z" fill="#DBDBDB" stroke="#DBDBDB" stroke-miterlimit="10"/>
</svg>
