<svg width="297" height="427" viewBox="0 0 297 427" fill="none" xmlns="http://www.w3.org/2000/svg">
<g filter="url(#filter0_d)">
<path d="M65.6839 364.723L99.0092 369.482C110.125 371.048 121.247 372.577 132.374 374.07C143.498 375.549 154.622 377.06 165.762 378.43C171.328 379.135 176.901 379.777 182.483 380.419L190.852 381.327L199.228 382.109V382.149L190.828 381.507L182.436 380.724C176.854 380.137 171.257 379.55 165.683 378.915C154.528 377.624 143.373 376.324 132.241 374.837C121.109 373.35 109.985 371.878 98.8683 370.336C87.752 368.793 76.6358 367.204 65.543 365.537L65.6839 364.723Z" fill="#2E2E2E"/>
<path d="M139.638 373.451C170.349 373.451 183.939 379.471 198.006 382.195C211.448 384.802 244.068 391.997 255.568 384.755C268.877 376.387 265.33 354.342 252.132 349.269C233.164 341.981 254.175 331.076 272.665 356.409C282.842 370.312 272.986 395.887 258.801 400.248C246.221 404.162 226.392 402.776 206.234 402.416C185.434 402.04 152.445 399.958 152.445 399.958C94.3746 399.989 48.6961 413.83 26.2679 377.24C1.75727 337.206 55.4128 258.03 79.2658 198.589C83.6248 187.772 86.1437 176.302 86.7184 164.653L166.395 164.097L189.004 364.206C190.937 368.61 193.141 372.89 195.603 377.021C197.952 380.818 201.443 385.233 203.431 386.125" fill="#232323"/>
<path d="M153.44 373.835C151.873 371.937 150.687 369.755 149.948 367.408C149.134 365.108 148.485 362.754 148.007 360.362C147.024 355.624 146.367 350.825 146.042 345.997L145.22 331.577L144.437 317.157L143.654 302.738C143.388 297.931 143.004 293.132 142.676 288.326C141.987 278.72 141.376 269.115 140.742 259.502L142.715 259.455C143.302 269.068 144.844 278.571 145.376 288.193C145.627 292.999 145.963 297.806 146.159 302.62L146.605 317.056L147.059 331.483L147.443 345.919C147.623 350.712 148.086 355.49 148.829 360.229C149.213 362.606 149.736 364.959 150.394 367.275C150.967 369.641 152.002 371.87 153.44 373.835Z" fill="#1A1A1A"/>
<path d="M146.198 241.692L137.204 245.278L143.466 270.344L143.208 249.153L148.343 244.33L155.201 237.324L146.198 241.692Z" fill="#1A1A1A"/>
<path d="M199.525 114.066C199.527 99.5982 195.238 85.4546 187.201 73.4243C179.164 61.3939 167.74 52.0171 154.373 46.4798C141.007 40.9424 126.298 39.4931 112.108 42.3153C97.9183 45.1375 84.8838 52.1044 74.6534 62.3348C64.423 72.5652 57.4561 85.5997 54.6339 99.7898C51.8117 113.98 53.261 128.688 58.7984 142.055C64.3357 155.421 73.7125 166.845 85.7429 174.882C97.7733 182.919 111.917 187.208 126.385 187.207C145.782 187.204 164.385 179.498 178.101 165.782C191.817 152.066 199.523 133.464 199.525 114.066Z" fill="#232323"/>
<path d="M197.255 123.249L213.694 178.11C214.79 181.766 211.69 185.351 207.346 185.469L133.258 187.512C130.518 187.59 129.054 184.733 130.956 183.019L195.814 124.494L197.255 123.249Z" fill="#232323"/>
<path d="M55.2328 122.74L39.0046 177.781C37.9243 181.445 40.9774 185.046 45.2673 185.164L118.314 187.207C121.014 187.285 122.463 184.428 120.584 182.705L56.6419 123.993L55.2328 122.74Z" fill="#232323"/>
<path d="M199.275 115.475C199.275 115.475 204.175 17.566 196.738 16.2978C181.387 13.738 155.827 51.0088 155.827 60.9195C155.827 84.5063 197.975 114.231 197.975 114.231L199.275 115.475Z" fill="#232323"/>
<path d="M53.1816 115.303C53.1816 115.303 48.2811 17.3626 55.718 16.1257C71.0694 13.5658 96.629 50.8367 96.629 60.7474C96.629 84.3342 54.4812 114.058 54.4812 114.058L53.1816 115.303Z" fill="#232323"/>
<path d="M83.1877 185.899L167.178 207.373L164.595 186.361L84.7612 185.821L83.1877 185.899Z" fill="#1A1A1A"/>
<path d="M111.597 90.5107H72.9877C70.38 90.5107 67.8791 91.5467 66.0351 93.3906C64.1912 95.2345 63.1553 97.7354 63.1553 100.343V120.352C63.1573 122.96 64.1939 125.459 66.0374 127.303C67.8809 129.146 70.3806 130.183 72.9877 130.185H111.597C114.204 130.183 116.704 129.146 118.547 127.303C120.391 125.459 121.427 122.96 121.43 120.352V100.343C121.43 97.7354 120.394 95.2345 118.55 93.3906C116.706 91.5467 114.205 90.5107 111.597 90.5107Z" fill="#999999"/>
<path d="M178.545 90.5107H139.935C137.328 90.5107 134.827 91.5467 132.983 93.3906C131.139 95.2345 130.103 97.7354 130.103 100.343V120.352C130.103 122.96 131.139 125.461 132.983 127.305C134.827 129.149 137.328 130.185 139.935 130.185H178.545C181.151 130.183 183.65 129.146 185.492 127.302C187.335 125.459 188.37 122.959 188.369 120.352V100.343C188.371 99.0523 188.117 97.7739 187.624 96.581C187.131 95.3882 186.407 94.3042 185.495 93.3911C184.582 92.4779 183.499 91.7536 182.306 91.2593C181.114 90.7651 179.836 90.5107 178.545 90.5107Z" fill="#999999"/>
<path d="M120.889 133.903H130.636C130.866 133.902 131.092 133.959 131.294 134.069C131.495 134.179 131.666 134.339 131.789 134.533C131.912 134.727 131.983 134.95 131.996 135.179C132.01 135.409 131.964 135.638 131.865 135.845L126.996 146.116C126.885 146.348 126.71 146.543 126.493 146.681C126.275 146.818 126.024 146.89 125.766 146.89C125.509 146.89 125.257 146.818 125.04 146.681C124.822 146.543 124.648 146.348 124.537 146.116L119.66 135.845C119.563 135.637 119.519 135.409 119.534 135.18C119.548 134.952 119.62 134.73 119.742 134.537C119.865 134.343 120.034 134.184 120.235 134.073C120.435 133.962 120.66 133.904 120.889 133.903Z" fill="#F4ABE5"/>
<path d="M105.773 138.593H62.0121C61.7872 138.593 61.605 138.775 61.605 139V139.986C61.605 140.211 61.7872 140.393 62.0121 140.393H105.773C105.997 140.393 106.18 140.211 106.18 139.986V139C106.18 138.775 105.997 138.593 105.773 138.593Z" fill="#333333"/>
<path d="M105.428 145.687L62.0931 151.777C61.8704 151.808 61.7153 152.014 61.7466 152.237L61.8839 153.214C61.9152 153.436 62.121 153.591 62.3436 153.56L105.678 147.47C105.901 147.439 106.056 147.233 106.025 147.01L105.887 146.033C105.856 145.811 105.65 145.656 105.428 145.687Z" fill="#333333"/>
<path d="M144.202 140.393H187.963C188.188 140.393 188.37 140.211 188.37 139.986V139C188.37 138.775 188.188 138.593 187.963 138.593H144.202C143.977 138.593 143.795 138.775 143.795 139V139.986C143.795 140.211 143.977 140.393 144.202 140.393Z" fill="#333333"/>
<path d="M144.291 147.478L187.626 153.568C187.848 153.6 188.054 153.445 188.085 153.222L188.223 152.245C188.254 152.022 188.099 151.817 187.876 151.785L144.542 145.695C144.319 145.664 144.113 145.819 144.082 146.042L143.945 147.018C143.913 147.241 144.068 147.447 144.291 147.478Z" fill="#333333"/>
<path d="M130.111 106.982H121.43V113.55H130.111V106.982Z" fill="#8C6239"/>
<path d="M80.9491 98.1513C81.7946 97.1728 81.4266 96.3743 80.1663 96.3743H72.15C71.5272 96.3743 70.9298 96.6217 70.4894 97.0621C70.0489 97.5026 69.8015 98.0999 69.8015 98.7228L69.8485 108.68C69.8485 109.972 70.553 110.246 71.4142 109.244L80.9491 98.1513Z" fill="#CCCCCC"/>
</g>
<defs>
<filter id="filter0_d" x="0" y="0" width="296.849" height="426.949" filterUnits="userSpaceOnUse" color-interpolation-filters="sRGB">
<feFlood flood-opacity="0" result="BackgroundImageFix"/>
<feColorMatrix in="SourceAlpha" type="matrix" values="0 0 0 0 0 0 0 0 0 0 0 0 0 0 0 0 0 0 127 0"/>
<feOffset dy="4"/>
<feGaussianBlur stdDeviation="10"/>
<feColorMatrix type="matrix" values="0 0 0 0 0 0 0 0 0 0 0 0 0 0 0 0 0 0 0.25 0"/>
<feBlend mode="normal" in2="BackgroundImageFix" result="effect1_dropShadow"/>
<feBlend mode="normal" in="SourceGraphic" in2="effect1_dropShadow" result="shape"/>
</filter>
</defs>
</svg>
