<svg width="429" height="384" viewBox="0 0 429 384" fill="none" xmlns="http://www.w3.org/2000/svg">
<path d="M347.507 319.276C356.891 300.997 365.052 279.453 370.999 258.19C376.505 237.702 380.185 217.714 380.493 200.942C380.513 137.786 346.846 128.369 306.258 117.579C293.466 113.888 279.678 110.144 266.607 104.24L262.729 102.032C250.982 93.8012 240.728 83.8526 231.029 74.7335C200.82 45.7171 175.766 21.1769 121.236 53.8019C106.968 62.6233 91.2669 75.7641 76.8422 91.1726C61.588 107.136 47.2224 125.146 36.2877 142.542C24.2488 161.877 18.0162 177.329 16.5396 189.84C15.5048 201.577 18.3965 210.927 25.2147 217.891C31.4783 224.026 40.4511 228.11 51.5785 229.311C70.2355 231.72 95.1945 228.474 121.312 222.292C139.958 217.505 165.762 224.498 188.253 237.307C210.745 250.117 229.923 268.743 235.319 287.223C243.326 312.839 253.267 335.962 264.857 350.779C271.788 359.349 279.657 365.371 288.129 367.628C297.209 369.719 306.893 368.044 316.901 360.391C326.688 353.126 336.798 339.883 347.507 319.276ZM306.809 347.453C301.39 351.557 296.521 352.893 291.981 351.847C287.053 350.581 282.065 346.714 277.186 340.854C266.706 327.695 257.653 306.619 250.534 283.049C244.191 259.921 222.406 237.757 196.425 222.96C170.444 208.163 140.266 200.733 117.192 206.08C92.9011 211.761 69.9349 215.115 53.8794 212.647C46.3498 211.44 40.2584 209.512 36.8762 205.531C33.661 202.159 32.3256 197.29 33.0908 190.536C34.1847 181.402 39.48 168.497 50.4147 151.101C60.6868 134.868 74.223 117.413 89.0355 102.225C102.798 87.9803 117.061 75.5611 130.278 67.6822C173.47 41.4389 194.755 61.7778 219.809 86.3181C230.063 96.2667 240.705 106.436 253.615 115.329C254.003 115.55 254.003 115.55 254.39 115.771L258.656 118.2C259.044 118.421 259.044 118.421 259.432 118.642C274.054 125.429 288.23 129.394 302.018 133.138C335.685 142.555 364.257 150.098 363.721 200.634C363.688 216.022 360.503 234.237 355.052 253.729C349.158 273.996 341.659 294.376 332.718 311.88C323.334 330.16 314.936 341.298 306.809 347.453Z" fill="#555BB1" fill-opacity="0.3"/>
<path d="M199.398 134.779C197.508 129.081 194.4 123.716 189.192 120.236C191.675 114.974 192.22 108.608 190.718 103.131L190.551 102.522C188.714 95.827 184.611 90.4085 178.406 86.8749C172.202 83.3413 164.839 82.7429 158.753 84.4122C153.275 85.9146 147.69 89.4097 144.21 94.6178C138.56 91.9136 132.582 91.5901 126.716 92.8716L126.108 93.0385C119.413 94.8747 113.994 98.9785 110.461 105.183C106.927 111.387 106.329 118.75 107.998 124.836C109.667 130.923 112.996 135.899 118.591 139.6C115.887 145.25 115.343 151.616 117.233 157.314C119.069 164.009 123.173 169.428 129.377 172.961C135.582 176.495 142.944 177.093 149.031 175.424C154.729 173.534 160.094 170.427 163.574 165.219C169.223 167.923 175.59 168.467 181.288 166.577C187.983 164.741 193.401 160.637 196.935 154.433C200.469 148.228 201.067 140.865 199.398 134.779ZM177.336 150.973C174.901 151.641 172.521 151.312 170.194 149.987L164.765 146.895C160.887 144.687 155.63 145.802 153.201 150.067L150.33 155.108C149.005 157.435 147.125 158.932 144.691 159.6C142.256 160.267 139.876 159.939 137.549 158.614C135.222 157.289 133.725 155.409 133.057 152.974C132.39 150.54 132.718 148.159 134.043 145.833L137.135 140.404C139.344 136.526 138.229 131.269 133.964 128.84L128.535 125.748C126.208 124.423 124.711 122.543 124.043 120.108C123.542 118.283 123.483 115.681 124.809 113.354C126.134 111.028 128.013 109.531 130.448 108.863C130.448 108.863 130.448 108.863 131.057 108.696C133.27 108.416 135.651 108.745 137.59 109.849L143.019 112.941C146.896 115.149 152.153 114.035 154.582 109.769L157.674 104.34C158.999 102.014 160.879 100.516 163.314 99.8488C165.748 99.181 168.129 99.5097 170.456 100.835C172.782 102.16 174.279 104.04 174.947 106.474C174.947 106.474 174.947 106.474 175.114 107.083C175.394 109.297 175.065 111.677 173.961 113.616L170.869 119.045C168.661 122.923 169.775 128.179 174.041 130.609L179.47 133.701C181.796 135.026 183.294 136.906 183.961 139.34C184.629 141.775 184.3 144.155 182.975 146.482C181.65 148.809 179.77 150.306 177.336 150.973Z" fill="#555BB1" fill-opacity="0.3"/>
<path d="M301.443 195.465C308.938 199.734 318.476 197.118 322.745 189.622C327.014 182.127 324.398 172.59 316.902 168.321C309.407 164.052 299.869 166.667 295.6 174.163C291.331 181.659 293.947 191.196 301.443 195.465Z" fill="#555BB1" fill-opacity="0.3"/>
<path d="M270.086 250.523C277.582 254.792 287.119 252.176 291.388 244.68C295.657 237.185 293.041 227.648 285.545 223.379C278.05 219.11 268.512 221.725 264.243 229.221C259.974 236.717 262.59 246.254 270.086 250.523Z" fill="#555BB1" fill-opacity="0.3"/>
<path d="M258.235 207.311C265.73 211.58 275.268 208.964 279.537 201.468C283.806 193.973 281.19 184.435 273.694 180.166C266.199 175.897 256.661 178.513 252.392 186.009C248.123 193.505 250.739 203.042 258.235 207.311Z" fill="#555BB1" fill-opacity="0.3"/>
<path d="M313.298 238.671C320.794 242.94 330.331 240.324 334.6 232.829C338.869 225.333 336.253 215.796 328.758 211.527C321.262 207.258 311.725 209.874 307.456 217.369C303.187 224.865 305.803 234.402 313.298 238.671Z" fill="#555BB1" fill-opacity="0.3"/>
</svg>
