<svg width="59" height="55" viewBox="0 0 59 55" fill="none" xmlns="http://www.w3.org/2000/svg">
<path d="M58.6705 44.1537L53.7369 39.2201C53.3976 38.8809 52.8478 38.8809 52.5086 39.2201C52.1695 39.5593 52.1695 40.1092 52.5086 40.4482L55.9601 43.8996L43.8268 43.8996L43.8268 19.4259C43.9263 19.5447 44.0257 19.6638 44.1254 19.7835C46.1817 22.2509 48.5121 25.0473 53.0452 25.0473C53.525 25.0473 53.9137 24.6585 53.9137 24.1788C53.9137 23.6992 53.525 23.3104 53.0452 23.3104C49.3256 23.3104 47.4478 21.0572 45.4597 18.6715C43.4034 16.2041 41.073 13.4077 36.54 13.4077C32.0081 13.4077 29.6777 16.2034 27.6216 18.67C26.7181 19.7537 25.8649 20.7774 24.8507 21.601C24.4785 21.9035 24.4217 22.4504 24.7242 22.8227C25.0265 23.1951 25.5736 23.2516 25.9458 22.9492C27.091 22.0191 28.039 20.8818 28.9557 19.7819C30.9437 17.397 32.8214 15.1445 36.54 15.1445C39.0129 15.1445 40.6714 16.141 42.0899 17.5097L42.0899 43.8996L38.4946 43.8996C38.0149 43.8996 37.6261 44.2884 37.6261 44.768C37.6261 45.2476 38.0149 45.6365 38.4946 45.6365L55.9594 45.6365L52.5085 49.0872C52.1694 49.4264 52.1694 49.9763 52.5085 50.3153C52.6782 50.485 52.9004 50.5697 53.1227 50.5697C53.3449 50.5697 53.5672 50.485 53.7369 50.3153L58.6705 45.3817C59.0097 45.0428 59.0097 44.4929 58.6705 44.1537Z" fill="#CDCDCD"/>
<path d="M34.4417 43.8997L19.2691 43.8997L19.2691 25.0188C19.5174 25.037 19.7719 25.0473 20.0346 25.0473C20.6708 25.0473 21.288 24.9921 21.8691 24.8831C22.3405 24.7947 22.651 24.3409 22.5626 23.8695C22.4742 23.3981 22.0207 23.0879 21.549 23.176C21.0732 23.2653 20.5638 23.3105 20.0347 23.3105C16.3164 23.3105 14.4389 21.0578 12.4512 18.6728C10.8985 16.8098 9.29638 14.8891 6.78551 13.9644L6.78551 2.965L10.2366 6.41612C10.4061 6.58564 10.6285 6.67051 10.8507 6.67051C11.0729 6.67051 11.2952 6.58575 11.4647 6.41612C11.8039 6.07696 11.8039 5.52705 11.4647 5.18801L6.53123 0.254502C6.51096 0.234238 6.48954 0.215016 6.46731 0.196721C6.4577 0.188847 6.44739 0.181899 6.43755 0.174489C6.42481 0.164878 6.41231 0.155035 6.39911 0.146235C6.38707 0.138245 6.37468 0.131298 6.3624 0.123887C6.35036 0.116708 6.33855 0.109181 6.32616 0.102465C6.31365 0.0957489 6.3008 0.090075 6.28806 0.0840537C6.27509 0.0779167 6.26247 0.071548 6.24916 0.0659899C6.23676 0.060895 6.22414 0.0567265 6.21164 0.0522105C6.19751 0.0471156 6.1835 0.0416733 6.16891 0.0372732C6.15652 0.0335678 6.1439 0.0307887 6.13128 0.0276623C6.11634 0.0238411 6.10163 0.0197882 6.08646 0.0166617C6.07234 0.0138827 6.0581 0.0122616 6.04397 0.0101773C6.03007 0.00809302 6.01653 0.00554556 6.0024 0.00415603C5.97739 0.00172436 5.95238 0.000682332 5.92736 0.000334951C5.92389 0.000334951 5.92053 -0.000244141 5.91706 -0.000244141C5.91358 -0.000244141 5.91023 0.000219158 5.90675 0.000334951C5.88174 0.000682332 5.85661 0.00172436 5.83172 0.00415603C5.81759 0.00554556 5.80393 0.00809302 5.79015 0.0101773C5.77602 0.0122616 5.76178 0.0138827 5.74765 0.0166617C5.73248 0.0196724 5.71766 0.0238411 5.70272 0.0276623C5.69022 0.0307887 5.6776 0.0335678 5.66521 0.0372732C5.65073 0.0416733 5.63672 0.0471156 5.62248 0.0522105C5.60997 0.0567265 5.59724 0.060895 5.58496 0.0659899C5.57176 0.0714322 5.55902 0.0779167 5.54606 0.0840537C5.53332 0.090075 5.52047 0.0957489 5.50796 0.102465C5.49557 0.109181 5.48376 0.116708 5.4716 0.123887C5.45933 0.131182 5.44694 0.138129 5.43501 0.146119C5.42169 0.155035 5.40919 0.164878 5.39633 0.174489C5.38649 0.181899 5.3763 0.188731 5.36669 0.196605C5.34446 0.214785 5.32315 0.234007 5.30277 0.254386L0.369266 5.18801C0.0301064 5.52717 0.0301064 6.07707 0.369266 6.41612C0.538788 6.58564 0.761112 6.67051 0.98332 6.67051C1.20553 6.67051 1.42785 6.58575 1.59737 6.41612L5.04861 2.965L5.04861 43.8997L0.868453 43.8997C0.388835 43.8997 6.24643e-10 44.2885 6.31408e-10 44.7681C6.38172e-10 45.2478 0.388835 45.6366 0.868453 45.6366L5.04861 45.6366L5.04861 50.9505C5.04861 51.4301 5.43744 51.8189 5.91706 51.8189C6.39668 51.8189 6.78551 51.4301 6.78551 50.9505L6.78551 45.6366L34.4417 45.6366C34.9214 45.6366 35.3101 45.2478 35.3101 44.7681C35.3101 44.2885 34.9214 43.8997 34.4417 43.8997ZM6.78551 15.8519C8.5399 16.6974 9.79881 18.2031 11.1168 19.7846C12.7553 21.7507 14.5694 23.9242 17.5322 24.7263L17.5322 43.8998L6.78551 43.8998L6.78551 15.8519Z" fill="#CDCDCD"/>
<path d="M30.7854 33.3329C30.2567 33.3329 29.9551 33.0454 29.8753 32.9573C29.5531 32.6019 29.0041 32.5748 28.6486 32.8969C28.2932 33.219 28.2661 33.7682 28.5882 34.1237C29.1332 34.725 29.9341 35.0699 30.7855 35.0699C31.8762 35.0699 32.7941 34.3624 32.9681 33.3878C33.0952 32.6762 32.7799 31.6744 31.4734 31.1926C31.0018 31.0185 30.558 30.8307 30.3512 30.7413C30.3585 30.7145 30.3936 30.6724 30.4869 30.6443C30.9049 30.5182 31.4554 30.8151 31.6164 30.9296C32.0021 31.2103 32.5428 31.1275 32.8262 30.7429C33.1109 30.357 33.0288 29.8132 32.6429 29.5285C32.5102 29.4305 31.3079 28.583 29.986 28.9813C29.2532 29.202 28.7341 29.7843 28.6312 30.501C28.5336 31.1811 28.8287 31.8353 29.4013 32.2088C29.4398 32.2338 29.48 32.2557 29.5219 32.2743C29.5481 32.286 30.1711 32.5634 30.8723 32.822C31.1766 32.9342 31.2625 33.059 31.2583 33.0826C31.2449 33.1561 31.0902 33.3329 30.7854 33.3329Z" fill="#CDCDCD"/>
<path d="M19.2693 48.7083C18.8988 48.7083 18.5834 48.9406 18.4586 49.2672C18.0775 49.0806 17.6495 48.9755 17.1974 48.9755C15.6101 48.9755 14.3188 50.2668 14.3188 51.854C14.3188 53.4413 15.6102 54.7325 17.1974 54.7325C17.6495 54.7325 18.0775 54.6274 18.4586 54.4409C18.5834 54.7674 18.8988 54.9998 19.2693 54.9998C19.7489 54.9998 20.1377 54.611 20.1377 54.1313L20.1377 49.5766C20.1377 49.0971 19.7489 48.7083 19.2693 48.7083ZM17.1975 52.9956C16.5679 52.9956 16.0559 52.4835 16.0559 51.854C16.0559 51.2246 16.568 50.7124 17.1975 50.7124C17.8269 50.7124 18.3391 51.2246 18.3391 51.854C18.339 52.4836 17.8269 52.9956 17.1975 52.9956Z" fill="#CDCDCD"/>
<path d="M42.9584 48.7714C42.4565 48.7714 41.9904 48.8915 41.5811 49.1032L41.5811 47.4339C41.5811 46.9543 41.1924 46.5654 40.7127 46.5654C40.233 46.5654 39.8442 46.9543 39.8442 47.4339L39.8442 54.1313C39.8442 54.6109 40.233 54.9997 40.7127 54.9997C41.0221 54.9997 41.2929 54.8375 41.4468 54.5939C41.887 54.8516 42.4007 54.9997 42.9584 54.9997C44.6756 54.9997 46.0727 53.6028 46.0727 51.8856C46.0727 50.1684 44.6756 48.7714 42.9584 48.7714ZM42.9584 53.2628C42.1989 53.2628 41.5811 52.6451 41.5811 51.8856C41.5811 51.1261 42.1989 50.5082 42.9584 50.5082C43.7179 50.5082 44.3358 51.1261 44.3358 51.8856C44.3358 52.6451 43.7178 53.2628 42.9584 53.2628Z" fill="#CDCDCD"/>
<path d="M21.8092 6.97015L21.8092 10.498C21.8092 10.9777 22.1981 11.3665 22.6777 11.3665C23.1573 11.3665 23.5461 10.9777 23.5461 10.498L23.5461 6.97791L23.6793 6.97791C24.1589 6.97791 24.5477 6.58907 24.5477 6.10946C24.5477 5.62984 24.1589 5.241 23.6793 5.241L23.5461 5.241L23.5461 4.65613C23.6281 4.64548 23.7409 4.64501 23.8258 4.65775C24.2959 4.73475 24.7412 4.41817 24.8221 3.9477C24.9032 3.47492 24.5858 3.02599 24.1132 2.94481C23.9339 2.91401 23.0066 2.78815 22.358 3.33481C22.0041 3.63309 21.8092 4.07357 21.8092 4.57519L21.8092 5.24876C21.3816 5.30295 21.0508 5.66724 21.0508 6.10946C21.0508 6.55167 21.3817 6.91596 21.8092 6.97015Z" fill="#CDCDCD"/>
<path d="M31.3393 10.0803C31.496 10.1984 31.6795 10.2554 31.8616 10.2554C32.1248 10.2554 32.3851 10.1361 32.5556 9.90977L33.6418 8.4693L34.7969 9.99152C34.9678 10.2166 35.2271 10.335 35.4894 10.335C35.6722 10.335 35.8568 10.2773 36.0137 10.1583C36.3958 9.86832 36.4704 9.32362 36.1804 8.9415L34.7284 7.02813L35.9298 5.43469C36.2186 5.05165 36.1422 4.50718 35.7593 4.21839C35.3761 3.92937 34.8317 4.00603 34.543 4.38896L33.6371 5.59032L32.7238 4.38676C32.4338 4.00475 31.8889 3.92995 31.5069 4.22001C31.1248 4.50996 31.0502 5.05466 31.3401 5.43678L32.5504 7.03149L31.1686 8.86404C30.88 9.24708 30.9564 9.79166 31.3393 10.0803Z" fill="#CDCDCD"/>
<path d="M27.8091 10.7399C27.8832 10.7399 27.9585 10.7303 28.0334 10.7104C28.4968 10.5869 28.7724 10.111 28.6488 9.64755C27.8886 6.79613 28.603 4.86388 28.6178 4.82497C28.7926 4.38067 28.576 3.87801 28.1321 3.7005C27.6868 3.52241 27.1815 3.73906 27.0033 4.1844C26.9639 4.28294 26.0487 6.63761 26.9705 10.095C27.074 10.4836 27.4252 10.7399 27.8091 10.7399Z" fill="#CDCDCD"/>
<path d="M38.7024 9.64755C38.579 10.111 38.8544 10.5869 39.3177 10.7104C39.3926 10.7303 39.468 10.7399 39.5421 10.7399C39.9259 10.7399 40.2772 10.4835 40.3807 10.095C41.3025 6.63761 40.3873 4.28294 40.3479 4.1844C40.1699 3.73906 39.6644 3.52241 39.2191 3.7005C38.7737 3.87859 38.5571 4.38403 38.7352 4.82937C38.7427 4.84825 39.465 6.78744 38.7024 9.64755Z" fill="#CDCDCD"/>
</svg>
