<svg width="46" height="65" viewBox="0 0 46 65" fill="none" xmlns="http://www.w3.org/2000/svg">
<path d="M36.9164 38.4337C38.0291 38.4325 39.0959 37.9898 39.8827 37.203C40.6696 36.4162 41.1122 35.3494 41.1135 34.2367L41.1135 34.0282L44.4403 34.0282C44.6916 34.028 44.9325 33.9281 45.1102 33.7504C45.2879 33.5727 45.3878 33.3317 45.388 33.0804L45.388 20.3321C45.3878 20.0808 45.2879 19.8398 45.1102 19.6621C44.9325 19.4844 44.6916 19.3845 44.4403 19.3844L41.1135 19.3844L41.1135 19.177C41.1117 18.0645 40.6689 16.9981 39.8822 16.2117C39.0954 15.4252 38.0288 14.9828 36.9164 14.9815L25.4532 14.9815L25.4532 11.2604C26.6323 10.6796 27.5803 9.71689 28.1427 8.52884C28.7051 7.3408 28.8489 5.99738 28.5508 4.7172C28.2526 3.43702 27.53 2.29541 26.5005 1.47815C25.471 0.660887 24.1952 0.216064 22.8808 0.216064C21.5663 0.216064 20.2905 0.660887 19.2611 1.47815C18.2316 2.29541 17.5089 3.43702 17.2108 4.7172C16.9126 5.99738 17.0564 7.3408 17.6188 8.52884C18.1813 9.71689 19.1292 10.6796 20.3084 11.2604L20.3084 14.9815L8.84515 14.9815C7.73241 14.9828 6.66562 15.4254 5.87879 16.2122C5.09196 16.9991 4.64936 18.0658 4.64807 19.1786L4.64807 19.386L1.32126 19.386C1.06996 19.3862 0.82898 19.486 0.651277 19.6637C0.473574 19.8415 0.373679 20.0824 0.373535 20.3337L0.373535 33.0804C0.373679 33.3317 0.473574 33.5727 0.651277 33.7504C0.82898 33.9281 1.06996 34.028 1.32126 34.0282L4.64807 34.0282L4.64807 34.2367C4.64936 35.3494 5.09196 36.4162 5.87879 37.203C6.66562 37.9898 7.73241 38.4325 8.84515 38.4337L15.4343 38.4337L15.4343 41.3127L4.57171 41.3127C3.45897 41.314 2.39217 41.7566 1.60534 42.5434C0.818514 43.3302 0.375908 44.397 0.374618 45.5098L0.374618 63.4511C0.374761 63.7024 0.474657 63.9434 0.65236 64.1211C0.830062 64.2988 1.07104 64.3987 1.32235 64.3988L44.4392 64.3988C44.6905 64.3987 44.9315 64.2988 45.1092 64.1211C45.2869 63.9434 45.3868 63.7024 45.3869 63.4511L45.3869 45.5098C45.3856 44.397 44.943 43.3302 44.1562 42.5434C43.3694 41.7566 42.3026 41.314 41.1898 41.3127L30.3272 41.3127L30.3272 38.4337L36.9164 38.4337ZM43.4925 21.2798L43.4925 32.1327L41.1135 32.1327L41.1135 21.2798L43.4925 21.2798ZM18.9545 6.04577C18.9545 5.26922 19.1847 4.5101 19.6162 3.86443C20.0476 3.21875 20.6608 2.7155 21.3782 2.41833C22.0957 2.12116 22.8851 2.0434 23.6467 2.1949C24.4084 2.3464 25.108 2.72034 25.6571 3.26945C26.2062 3.81855 26.5801 4.51815 26.7316 5.27978C26.8831 6.04141 26.8054 6.83086 26.5082 7.5483C26.211 8.26574 25.7078 8.87894 25.0621 9.31037C24.4164 9.7418 23.6573 9.97207 22.8808 9.97207C21.8398 9.97093 20.8418 9.5569 20.1057 8.82082C19.3696 8.08474 18.9556 7.08674 18.9545 6.04577ZM22.2038 11.8247C22.6533 11.8818 23.1082 11.8818 23.5577 11.8247L23.5577 14.9815L22.2038 14.9815L22.2038 11.8247ZM2.26899 32.1327L2.26899 21.2798L4.64807 21.2798L4.64807 32.1327L2.26899 32.1327ZM6.54353 34.2367L6.54353 19.177C6.54424 18.5668 6.78696 17.9817 7.21845 17.5503C7.64993 17.1188 8.23495 16.8761 8.84515 16.8753L21.2404 16.8753L21.2561 16.8753C21.2561 16.8753 21.2664 16.8753 21.2718 16.8753L24.4897 16.8753L24.5054 16.8753C24.5054 16.8753 24.5157 16.8753 24.5211 16.8753L36.9164 16.8753C37.5266 16.8761 38.1116 17.1188 38.5431 17.5503C38.9746 17.9817 39.2173 18.5668 39.218 19.177L39.218 34.2367C39.2173 34.8469 38.9746 35.4319 38.5431 35.8634C38.1116 36.2948 37.5266 36.5376 36.9164 36.5383L29.4055 36.5383C29.3968 36.5383 29.3887 36.5356 29.3795 36.5356C29.3703 36.5356 29.3622 36.5356 29.3535 36.5383L16.4102 36.5383C16.4015 36.5383 16.3934 36.5356 16.3842 36.5356C16.375 36.5356 16.3669 36.5356 16.3582 36.5383L8.84515 36.5383C8.23495 36.5376 7.64993 36.2948 7.21845 35.8634C6.78696 35.4319 6.54424 34.8469 6.54353 34.2367ZM34.1176 62.5034L11.6429 62.5034L11.6429 54.6849L34.1176 54.6849L34.1176 62.5034ZM43.4914 45.5098L43.4914 62.5034L36.013 62.5034L36.013 53.7371C36.013 53.4858 35.9132 53.2447 35.7355 53.067C35.5577 52.8893 35.3167 52.7894 35.0653 52.7894L10.6951 52.7894C10.4438 52.7896 10.2028 52.8895 10.0251 53.0672C9.84743 53.2449 9.74754 53.4858 9.74739 53.7371L9.74739 62.5034L2.27008 62.5034L2.27008 45.5098C2.27079 44.8996 2.51352 44.3145 2.945 43.8831C3.37648 43.4516 3.9615 43.2089 4.57171 43.2081L41.1898 43.2081C41.8 43.2089 42.385 43.4516 42.8165 43.8831C43.248 44.3145 43.4907 44.8996 43.4914 45.5098ZM28.4317 41.3127L17.3298 41.3127L17.3298 38.4337L28.4317 38.4337L28.4317 41.3127Z" fill="#CDCDCD"/>
<path d="M18.1435 24.5394C18.1433 23.7093 17.8969 22.8979 17.4356 22.2078C16.9743 21.5177 16.3187 20.9798 15.5517 20.6623C14.7847 20.3447 13.9408 20.2617 13.1267 20.4238C12.3125 20.5858 11.5647 20.9856 10.9778 21.5726C10.3908 22.1596 9.99111 22.9075 9.82918 23.7217C9.66724 24.5358 9.75035 25.3797 10.068 26.1467C10.3856 26.9136 10.9236 27.5691 11.6137 28.0304C12.3039 28.4916 13.1154 28.7379 13.9455 28.738C15.0586 28.7368 16.1258 28.2941 16.9128 27.5069C17.6999 26.7198 18.1425 25.6525 18.1435 24.5394ZM13.9455 26.8423C13.4902 26.8423 13.0452 26.7073 12.6666 26.4544C12.2881 26.2015 11.9931 25.842 11.8188 25.4214C11.6446 25.0008 11.599 24.5379 11.6879 24.0914C11.7767 23.6449 11.9959 23.2348 12.3178 22.9128C12.6397 22.5909 13.0499 22.3717 13.4964 22.2829C13.9429 22.1941 14.4057 22.2396 14.8263 22.4139C15.247 22.5881 15.6065 22.8831 15.8594 23.2617C16.1123 23.6402 16.2473 24.0852 16.2473 24.5405C16.2466 25.1508 16.0039 25.7358 15.5723 26.1674C15.1408 26.5989 14.5557 26.8416 13.9455 26.8423Z" fill="#CDCDCD"/>
<path d="M31.8166 28.738C32.6468 28.738 33.4583 28.4918 34.1486 28.0306C34.8389 27.5693 35.3769 26.9138 35.6946 26.1468C36.0123 25.3798 36.0954 24.5358 35.9334 23.7216C35.7715 22.9074 35.3717 22.1595 34.7847 21.5724C34.1977 20.9854 33.4497 20.5856 32.6355 20.4237C31.8213 20.2617 30.9773 20.3448 30.2103 20.6625C29.4433 20.9802 28.7878 21.5182 28.3265 22.2085C27.8653 22.8988 27.6191 23.7103 27.6191 24.5405C27.6204 25.6533 28.0631 26.7202 28.85 27.5071C29.6369 28.294 30.7038 28.7367 31.8166 28.738ZM31.8166 22.2387C32.2719 22.2387 32.7169 22.3737 33.0955 22.6266C33.474 22.8795 33.769 23.239 33.9432 23.6596C34.1175 24.0802 34.163 24.543 34.0742 24.9896C33.9854 25.4361 33.7662 25.8462 33.4443 26.1681C33.1223 26.4901 32.7122 26.7093 32.2657 26.7981C31.8192 26.8869 31.3563 26.8413 30.9357 26.6671C30.5151 26.4929 30.1556 26.1979 29.9027 25.8193C29.6498 25.4408 29.5148 24.9958 29.5148 24.5405C29.5155 23.9302 29.7582 23.3452 30.1898 22.9136C30.6213 22.4821 31.2063 22.2394 31.8166 22.2387Z" fill="#CDCDCD"/>
<path d="M16.314 32.7854C16.3141 33.0367 16.414 33.2777 16.5917 33.4554C16.7694 33.6331 17.0104 33.733 17.2617 33.7331L28.4991 33.7331C28.7504 33.7331 28.9915 33.6333 29.1692 33.4555C29.3469 33.2778 29.4468 33.0367 29.4468 32.7854C29.4468 32.534 29.3469 32.293 29.1692 32.1152C28.9915 31.9375 28.7504 31.8376 28.4991 31.8376L17.2617 31.8376C17.0104 31.8378 16.7694 31.9377 16.5917 32.1154C16.414 32.2931 16.3141 32.5341 16.314 32.7854Z" fill="#CDCDCD"/>
<path d="M39.5653 49.7073C40.0741 49.7073 40.5715 49.5564 40.9946 49.2737C41.4177 48.991 41.7474 48.5893 41.9421 48.1192C42.1369 47.6491 42.1878 47.1318 42.0885 46.6328C41.9893 46.1337 41.7442 45.6753 41.3845 45.3155C41.0247 44.9557 40.5663 44.7107 40.0672 44.6114C39.5682 44.5122 39.0509 44.5631 38.5808 44.7578C38.1107 44.9526 37.7089 45.2823 37.4262 45.7054C37.1436 46.1284 36.9927 46.6258 36.9927 47.1347C36.9935 47.8167 37.2649 48.4706 37.7471 48.9528C38.2294 49.4351 38.8833 49.7064 39.5653 49.7073ZM39.5653 46.4576C39.6992 46.4576 39.8301 46.4974 39.9415 46.5717C40.0528 46.6461 40.1396 46.7519 40.1908 46.8756C40.242 46.9993 40.2554 47.1354 40.2293 47.2667C40.2032 47.3981 40.1387 47.5187 40.044 47.6134C39.9494 47.7081 39.8287 47.7725 39.6974 47.7987C39.5661 47.8248 39.4299 47.8114 39.3062 47.7601C39.1825 47.7089 39.0768 47.6221 39.0024 47.5108C38.928 47.3995 38.8883 47.2686 38.8883 47.1347C38.8885 46.9551 38.9598 46.783 39.0868 46.6561C39.2137 46.5292 39.3858 46.4578 39.5653 46.4576Z" fill="#CDCDCD"/>
<path d="M3.62402 47.1347C3.62402 47.6435 3.77491 48.1409 4.05759 48.5639C4.34028 48.987 4.74207 49.3168 5.21216 49.5115C5.68225 49.7062 6.19952 49.7571 6.69857 49.6579C7.19761 49.5586 7.65602 49.3136 8.01581 48.9538C8.3756 48.594 8.62062 48.1356 8.71988 47.6366C8.81915 47.1375 8.7682 46.6202 8.57349 46.1501C8.37877 45.6801 8.04903 45.2783 7.62596 44.9956C7.20289 44.7129 6.70549 44.562 6.19667 44.562C5.51463 44.5629 4.86076 44.8342 4.37848 45.3165C3.89621 45.7988 3.62488 46.4526 3.62402 47.1347ZM6.19667 46.4576C6.33057 46.4576 6.46146 46.4974 6.5728 46.5717C6.68413 46.6461 6.77091 46.7519 6.82215 46.8756C6.87339 46.9993 6.8868 47.1354 6.86067 47.2667C6.83455 47.3981 6.77007 47.5187 6.67539 47.6134C6.58071 47.7081 6.46008 47.7725 6.32875 47.7987C6.19742 47.8248 6.0613 47.8114 5.93759 47.7601C5.81388 47.7089 5.70815 47.6221 5.63376 47.5108C5.55936 47.3994 5.51966 47.2686 5.51966 47.1347C5.51966 46.9551 5.59099 46.7829 5.71795 46.6559C5.84492 46.529 6.01712 46.4576 6.19667 46.4576Z" fill="#CDCDCD"/>
</svg>
