<svg width="57" height="67" viewBox="0 0 57 67" fill="none" xmlns="http://www.w3.org/2000/svg">
<path d="M50.1942 0.882451C49.7118 0.131243 48.7501 -0.204933 47.8869 0.129155L45.7225 0.965223C44.7352 1.3467 44.242 2.46046 44.6233 3.4481L44.6233 3.44823L22.9533 11.8186C21.8014 12.2634 21.0834 13.3414 21.0447 14.5047L10.4568 18.5945C9.45663 18.9806 8.84656 19.9262 8.8382 20.9332L6.10022 21.9907L5.87541 21.4087C5.49367 20.421 4.37952 19.9278 3.39266 20.3095L1.22794 21.1455C0.240563 21.5272 -0.252409 22.641 0.129069 23.6284L2.79812 30.5387C3.17986 31.5266 4.28904 32.0214 5.28099 31.6379L7.44545 30.8019C8.4327 30.4204 8.92593 29.3067 8.54458 28.319L8.31977 27.737L11.0579 26.6794C11.7441 27.42 12.8356 27.7063 13.8281 27.3229L24.4162 23.233C25.1022 23.9399 26.1349 24.3012 27.1927 24.0691C27.3636 24.278 27.5536 24.4704 27.7594 24.6449L27.7594 28.6752C26.0839 29.1482 24.8332 30.6429 24.7269 32.4414L23.8719 32.4414C22.3885 32.4414 21.1818 33.6481 21.1818 35.1315L21.1818 36.9716C21.1818 38.2268 22.0471 39.2807 23.2117 39.5763L14.5706 63.0074L14.5707 63.0073C13.8854 64.8652 15.263 66.8415 17.2433 66.8415C18.4309 66.8415 19.5049 66.0929 19.916 64.9785L27.7594 43.7104L27.7594 63.9929C27.7594 65.5636 29.0373 66.8415 30.608 66.8415C32.1785 66.8415 33.4564 65.5636 33.4564 63.9929L33.4564 55.5893C33.4564 55.0484 33.0181 54.6101 32.4772 54.6101C31.9363 54.6101 31.4981 55.0484 31.4981 55.5893L31.4981 63.9929C31.4981 64.4838 31.0987 64.8832 30.608 64.8832C30.1172 64.8832 29.7177 64.4837 29.7177 63.9929L29.7177 39.6617L31.4982 39.6617L31.4982 51.0199C31.4982 51.5608 31.9365 51.9991 32.4774 51.9991C33.0182 51.9991 33.4565 51.5608 33.4565 51.0199L33.4565 43.7108L41.2999 64.9786C41.7109 66.0929 42.785 66.8416 43.9726 66.8416C45.9528 66.8416 47.3304 64.8654 46.6453 63.0075L38.0041 39.5765C39.1688 39.281 40.0341 38.2269 40.0341 36.9718L40.0341 35.1316C40.0341 33.6483 38.8274 32.4415 37.344 32.4415L36.4889 32.4415C36.3826 30.6429 35.132 29.1482 33.4565 28.6753L33.4565 24.6451C34.412 23.8352 35.0202 22.6273 35.0202 21.2796C35.0202 21.2153 35.0181 21.1518 35.0153 21.0882L40.5045 18.968C41.0089 18.7732 41.2599 18.2062 41.0651 17.7019C40.8702 17.1974 40.3028 16.9465 39.799 17.1413L34.496 19.1895C33.7238 17.7478 32.2159 16.8674 30.6082 16.8674C28.1753 16.8674 26.196 18.8467 26.196 21.2796C26.196 21.6187 26.2489 22.0212 26.2814 22.1432C25.963 22.0527 25.7167 21.8227 25.6012 21.5242L23.0709 14.9737C22.8673 14.4451 23.128 13.8506 23.659 13.6455L45.3291 5.27507L48.5995 13.7419L44.0681 15.4922C43.5636 15.687 43.3127 16.254 43.5075 16.7583C43.7024 17.2627 44.2686 17.514 44.7736 17.3189L49.3051 15.5686C49.688 16.5603 50.8 17.05 51.788 16.668L53.9525 15.8321C54.8166 15.4982 55.3021 14.6034 55.1542 13.7231C59.1296 8.98581 56.3204 1.71682 50.1942 0.882451ZM18.0786 64.3012C17.9502 64.6494 17.6144 64.8833 17.2434 64.8833C16.6227 64.8833 16.1935 64.267 16.4081 63.6851L16.4082 63.685L25.2676 39.6617L27.1654 39.6617L18.0786 64.3012ZM43.9726 64.8833C43.6015 64.8833 43.2658 64.6494 43.1375 64.3012L34.0505 39.6618L35.9483 39.6618L44.8078 63.6851C45.0227 64.267 44.5928 64.8833 43.9726 64.8833ZM38.0758 35.1316L38.0758 36.9718C38.0758 37.3752 37.7474 37.7034 37.344 37.7034C35.956 37.7034 25.579 37.7034 23.8722 37.7034C23.4686 37.7034 23.1404 37.375 23.1404 36.9718L23.1404 35.1316C23.1404 34.7281 23.4687 34.3999 23.8722 34.3999L37.344 34.3999C37.7474 34.3997 38.0758 34.7281 38.0758 35.1316ZM34.5247 32.4414L26.6912 32.4414C26.815 31.3373 27.7544 30.4762 28.8912 30.4762L32.325 30.4762C33.4615 30.4763 34.4008 31.3373 34.5247 32.4414ZM31.4982 28.518L29.7177 28.518L29.7177 25.6013C30.0053 25.6604 30.3031 25.6916 30.608 25.6916C30.9128 25.6916 31.2105 25.6606 31.4981 25.6013L31.4981 28.518H31.4982ZM30.6081 18.8254C31.9592 18.8254 33.0618 19.9272 33.0618 21.2793C33.0618 22.6458 31.946 23.7332 30.6081 23.7332C29.2552 23.7332 28.1542 22.6316 28.1542 21.2793C28.1542 19.9262 29.2549 18.8254 30.6081 18.8254ZM4.61125 29.7973L1.96975 22.9585L4.06253 22.1502C6.32386 28.0041 3.78706 21.4373 6.70416 28.9889L4.61125 29.7973ZM7.61426 25.9104L6.80586 23.8175L9.37739 22.8243L10.1858 24.9171L7.61426 25.9104ZM13.1227 25.4962C12.829 25.61 12.4968 25.4647 12.3821 25.1682L12.3659 25.1265C12.3658 25.1259 12.3656 25.1254 12.3654 25.1248C11.428 22.6983 11.7506 23.5334 10.8345 21.1618C10.7208 20.8671 10.8678 20.5349 11.1623 20.4212L21.529 16.4169L23.4894 21.4918L13.1227 25.4962ZM54.327 11.4733L51.0942 3.10383C54.52 4.31211 56.0503 8.27729 54.327 11.4733ZM51.1181 14.8271C50.6126 13.5183 46.9349 3.99786 46.4639 2.7781L48.5568 1.96971C48.8084 2.62117 52.9326 13.2983 53.2109 14.0188L51.1181 14.8271Z" fill="#CDCDCD"/>
</svg>
