<svg width="241" height="241" viewBox="0 0 241 241" fill="none" xmlns="http://www.w3.org/2000/svg">
<path d="M89.2056 158.121L81.2325 156.704C73.5383 155.338 66.168 160.484 64.8012 168.179L59.1358 200.071C57.769 207.765 62.9158 215.135 70.61 216.502L78.583 217.918C86.2773 219.285 93.6476 214.138 95.0144 206.444L100.68 174.552C102.047 166.858 96.8998 159.488 89.2056 158.121ZM83.0549 204.32C82.8596 205.419 81.8069 206.154 80.7075 205.959L72.7345 204.542C71.6351 204.347 70.9001 203.294 71.0954 202.195L76.7607 170.303C76.956 169.204 78.0086 168.469 79.108 168.664L87.081 170.08C88.1805 170.276 88.9155 171.328 88.7202 172.428L83.0549 204.32Z" fill="#555BB1" fill-opacity="0.3"/>
<path d="M32.87 197.461L26.8902 196.399L34.326 154.54C34.9127 151.237 32.7114 148.085 29.4085 147.498L17.449 145.374C14.1461 144.787 10.9937 146.988 10.407 150.291C9.82026 153.594 12.0216 156.746 15.3245 157.333L21.3042 158.395L14.9307 194.274L8.95097 193.212C5.64809 192.625 2.49569 194.826 1.90896 198.129C1.32223 201.432 3.52358 204.585 6.82646 205.171L30.7455 209.42C34.0484 210.007 37.2008 207.806 37.7875 204.503C38.3742 201.2 36.1729 198.048 32.87 197.461Z" fill="#555BB1" fill-opacity="0.3"/>
<path d="M200.828 177.949L192.855 176.533C185.16 175.166 177.79 180.313 176.423 188.007L170.758 219.899C169.391 227.594 174.538 234.964 182.232 236.331L190.205 237.747C197.899 239.114 205.27 233.967 206.636 226.273L212.302 194.381C213.669 186.687 208.522 179.316 200.828 177.949ZM194.677 224.148C194.482 225.248 193.429 225.983 192.33 225.788L184.357 224.371C183.257 224.176 182.522 223.123 182.717 222.024L188.383 190.132C188.578 189.032 189.631 188.297 190.73 188.493L198.703 189.909C199.803 190.104 200.538 191.157 200.342 192.256L194.677 224.148Z" fill="#555BB1" fill-opacity="0.3"/>
<path d="M144.492 217.289L138.512 216.227L145.948 174.369C146.535 171.066 144.333 167.914 141.031 167.327L129.071 165.202C125.768 164.616 122.616 166.817 122.029 170.12C121.442 173.423 123.644 176.575 126.947 177.162L132.926 178.224L126.553 214.103L120.573 213.04C117.27 212.454 114.118 214.655 113.531 217.958C112.944 221.261 115.146 224.413 118.449 225L142.368 229.249C145.67 229.836 148.823 227.634 149.41 224.331C149.996 221.029 147.795 217.876 144.492 217.289Z" fill="#555BB1" fill-opacity="0.3"/>
<path d="M102.024 85.9651L94.0509 84.5488C86.3566 83.182 78.9864 88.3287 77.6196 96.023L71.9542 127.915C70.5874 135.609 75.7341 142.98 83.4284 144.346L91.4014 145.763C99.0956 147.129 106.466 141.983 107.833 134.289L113.498 102.396C114.865 94.7022 109.718 87.3319 102.024 85.9651ZM95.8732 132.164C95.6779 133.263 94.6253 133.998 93.5259 133.803L85.5529 132.387C84.4535 132.192 83.7184 131.139 83.9137 130.039L89.5791 98.1475C89.7744 97.0481 90.827 96.313 91.9264 96.5083L99.8994 97.9246C100.999 98.1199 101.734 99.1726 101.539 100.272L95.8732 132.164Z" fill="#555BB1" fill-opacity="0.3"/>
<path d="M45.6874 125.305L39.7076 124.243L47.1434 82.3845C47.7301 79.0816 45.5288 75.9292 42.2259 75.3425L30.2664 73.218C26.9635 72.6312 23.8111 74.8326 23.2244 78.1355C22.6376 81.4383 24.839 84.5907 28.1419 85.1775L34.1216 86.2397L27.7481 122.118L21.7684 121.056C18.4655 120.469 15.3131 122.671 14.7263 125.973C14.1396 129.276 16.341 132.429 19.6438 133.016L43.5629 137.265C46.8657 137.851 50.0181 135.65 50.6049 132.347C51.1916 129.044 48.9903 125.892 45.6874 125.305Z" fill="#555BB1" fill-opacity="0.3"/>
<path d="M157.834 95.8794L149.861 94.4631C142.167 93.0963 134.797 98.243 133.43 105.937L127.765 137.829C126.398 145.524 131.545 152.894 139.239 154.261L147.212 155.677C154.906 157.044 162.276 151.897 163.643 144.203L169.309 112.311C170.675 104.617 165.529 97.2462 157.834 95.8794ZM151.684 142.078C151.488 143.178 150.436 143.913 149.336 143.717L141.363 142.301C140.264 142.106 139.529 141.053 139.724 139.954L145.39 108.062C145.585 106.962 146.638 106.227 147.737 106.423L155.71 107.839C156.809 108.034 157.544 109.087 157.349 110.186L151.684 142.078Z" fill="#555BB1" fill-opacity="0.3"/>
<path d="M213.12 155.048L207.141 153.986L214.576 112.128C215.163 108.825 212.962 105.672 209.659 105.086L197.699 102.961C194.397 102.374 191.244 104.576 190.657 107.879C190.071 111.182 192.272 114.334 195.575 114.921L201.555 115.983L195.181 151.861L189.201 150.799C185.899 150.212 182.746 152.414 182.159 155.717C181.573 159.02 183.774 162.172 187.077 162.759L210.996 167.008C214.299 167.594 217.451 165.393 218.038 162.09C218.625 158.787 216.423 155.635 213.12 155.048Z" fill="#555BB1" fill-opacity="0.3"/>
<path d="M59.0312 3.89511L51.0582 2.47877C43.364 1.11195 35.9937 6.25868 34.6269 13.9529L28.9615 45.845C27.5947 53.5392 32.7414 60.9095 40.4357 62.2763L48.4087 63.6927C56.103 65.0595 63.4732 59.9128 64.8401 52.2185L70.5054 20.3265C71.8722 12.6322 66.7255 5.26193 59.0312 3.89511ZM52.8806 50.094C52.6853 51.1934 51.6326 51.9285 50.5332 51.7332L42.5602 50.3168C41.4608 50.1215 40.7257 49.0689 40.921 47.9695L46.5864 16.0775C46.7817 14.978 47.8343 14.243 48.9337 14.4383L56.9067 15.8546C58.0061 16.0499 58.7412 17.1026 58.5459 18.202L52.8806 50.094Z" fill="#555BB1" fill-opacity="0.3"/>
<path d="M114.316 63.0637L108.337 62.0015L115.772 20.1432C116.359 16.8403 114.158 13.6879 110.855 13.1012L98.8953 10.9767C95.5924 10.39 92.44 12.5913 91.8533 15.8942C91.2665 19.1971 93.4679 22.3495 96.7708 22.9362L102.751 23.9984L96.377 59.877L90.3973 58.8147C87.0944 58.228 83.942 60.4293 83.3552 63.7322C82.7685 67.0351 84.9699 70.1875 88.2728 70.7742L112.192 75.0232C115.495 75.61 118.647 73.4086 119.234 70.1057C119.821 66.8029 117.619 63.6505 114.316 63.0637Z" fill="#555BB1" fill-opacity="0.3"/>
<path d="M226.463 33.638L218.49 32.2217C210.796 30.8549 203.426 36.0016 202.059 43.6959L196.394 75.5879C195.027 83.2822 200.174 90.6524 207.868 92.0192L215.841 93.4356C223.535 94.8024 230.905 89.6557 232.272 81.9614L237.938 50.0694C239.304 42.3751 234.158 35.0049 226.463 33.638ZM220.313 79.8369C220.117 80.9363 219.065 81.6714 217.965 81.4761L209.992 80.0597C208.893 79.8644 208.158 78.8118 208.353 77.7124L214.019 45.8204C214.214 44.721 215.266 43.9859 216.366 44.1812L224.339 45.5975C225.438 45.7928 226.173 46.8455 225.978 47.9449L220.313 79.8369Z" fill="#555BB1" fill-opacity="0.3"/>
<path d="M170.127 72.9781L164.147 71.9159L171.583 30.0576C172.17 26.7547 169.968 23.6023 166.665 23.0156L154.706 20.891C151.403 20.3043 148.251 22.5057 147.664 25.8086C147.077 29.1114 149.278 32.2638 152.581 32.8506L158.561 33.9128L152.188 69.7913L146.208 68.7291C142.905 68.1424 139.753 70.3437 139.166 73.6466C138.579 76.9495 140.78 80.1019 144.083 80.6886L168.002 84.9376C171.305 85.5243 174.458 83.323 175.044 80.0201C175.631 76.7172 173.43 73.5648 170.127 72.9781Z" fill="#555BB1" fill-opacity="0.3"/>
</svg>
