<svg width="56" height="57" viewBox="0 0 56 57" fill="none" xmlns="http://www.w3.org/2000/svg">
<path d="M28 57C28 57 9.31065 54.897 0.315304 45.0968C-1.36587 43.2672 4.22346 34.9392 4.22346 34.9392C4.22346 34.9392 0.751971 7.28442 3.59031 0.891208C5.62081 -3.67236 17.6728 10.7754 17.6728 10.7754C20.9599 9.49452 24.4559 8.78259 28 8.67238" fill="#E1E1E1"/>
<path d="M28 57C28 57 46.6893 54.897 55.6847 45.0968C57.3659 43.2672 51.7765 34.9392 51.7765 34.9392C51.7765 34.9392 55.248 7.28442 52.4097 0.891208C50.3792 -3.67236 38.3272 10.7754 38.3272 10.7754C35.0401 9.49452 31.5441 8.78259 28 8.67238" fill="#151A1E"/>
</svg>
