<svg width="210" height="86" viewBox="0 0 210 86" fill="none" xmlns="http://www.w3.org/2000/svg">
<path d="M100.119 67.2982C92.8901 67.2982 86.7093 64.8655 81.2696 59.89C77.9093 56.8172 75.1389 53.0527 72.59 49.1384C70.0415 53.0527 67.2706 56.8172 63.9108 59.89C58.0659 65.2358 51.3648 67.6463 43.4282 67.2579C28.2929 67.1923 16 55.2718 16 40.629C16 25.9458 28.3604 14.0001 43.5533 14.0001C51.8673 14.0001 58.867 16.7459 64.9507 22.3939C67.8729 25.1069 70.3397 28.254 72.59 31.5468C74.8402 28.254 77.3075 25.1069 80.2293 22.3939C86.3129 16.7459 93.3127 14.0001 101.627 14.0001C116.82 14.0001 129.18 25.9458 129.18 40.629C129.18 55.2718 116.887 67.1923 101.752 67.2579C101.202 67.2849 100.657 67.2982 100.119 67.2982ZM78.125 40.2737C81.1405 45.1563 84.0671 49.7009 87.632 52.961C91.6558 56.6414 95.8971 58.1554 101.38 57.8661L101.627 57.8595C111.627 57.8595 119.763 50.1301 119.763 40.629C119.763 31.1283 111.627 23.3984 101.627 23.3984C95.7231 23.3984 90.9621 25.2659 86.6436 29.275C83.4182 32.2697 80.7552 36.1065 78.125 40.2737ZM43.5533 23.3984C33.5533 23.3984 25.4173 31.1283 25.4173 40.629C25.4173 50.1301 33.5533 57.8595 43.5533 57.8595L43.8005 57.8661C49.2837 58.1554 53.5241 56.6414 57.5479 52.961C61.1128 49.7009 64.0399 45.1563 67.0549 40.2737C64.4247 36.1065 61.7617 32.2697 58.5368 29.275C54.2178 25.2659 49.4568 23.3984 43.5533 23.3984Z" fill="#00979C"/>
<path d="M102.872 37.2133V32.1168H97.5568V37.2133H92.4504V42.4923H97.5568V47.6265H102.872V42.4923H107.979V37.2133H102.872Z" fill="#00979C"/>
<path d="M35.9067 37.1497H52.6913V42.5943H35.9067V37.1497Z" fill="#00979C"/>
<path d="M184.503 16.8529C180.739 13.0908 175.08 11.9657 170.163 14.002C165.246 16.0383 162.039 20.8353 162.037 26.1572V47.4182H188.361L188.361 26.1572C188.364 22.6661 186.975 19.3178 184.503 16.8529V16.8529Z" fill="#E64C3C"/>
<path d="M183.298 42.3561H178.48C178.119 42.3553 177.785 42.1621 177.605 41.849C177.425 41.5359 177.425 41.1504 177.605 40.8374L179.968 36.7877C180.149 36.4754 180.481 36.2826 180.842 36.2815H182.286C182.845 36.2815 183.298 36.7348 183.298 37.2939V42.3561Z" fill="#C03A2B"/>
<path d="M170.137 19.5966C169.691 19.5974 169.297 19.3061 169.167 18.8793C169.037 18.4526 169.201 17.991 169.572 17.7428C171.236 16.6255 173.195 16.0301 175.199 16.0328C175.758 16.0328 176.211 16.4861 176.211 17.0453C176.211 17.6044 175.758 18.0577 175.199 18.0577C173.597 18.0557 172.031 18.5319 170.701 19.4255C170.534 19.5372 170.338 19.5967 170.137 19.5966Z" fill="#FB7B76"/>
<path d="M166.087 27.1696C165.528 27.1696 165.074 26.7163 165.074 26.1572C165.07 24.5944 165.432 23.0525 166.131 21.6549C166.293 21.3312 166.615 21.1182 166.976 21.0962C167.337 21.0742 167.683 21.2465 167.882 21.5482C168.082 21.85 168.105 22.2353 167.944 22.559C167.385 23.676 167.096 24.9083 167.099 26.1572C167.099 26.4257 166.993 26.6832 166.803 26.8731C166.613 27.0629 166.355 27.1696 166.087 27.1696Z" fill="#FB7B76"/>
<path d="M182.286 48.4306C181.727 48.4306 181.273 47.9774 181.273 47.4182V42.3561C181.273 41.7969 181.727 41.3436 182.286 41.3436C182.845 41.3436 183.298 41.7969 183.298 42.3561V47.4182C183.298 47.9774 182.845 48.4306 182.286 48.4306Z" fill="#C03A2B"/>
<path d="M168.112 48.4306C167.553 48.4306 167.1 47.9774 167.1 47.4182V42.3561C167.1 41.7969 167.553 41.3436 168.112 41.3436C168.671 41.3436 169.124 41.7969 169.124 42.3561V47.4182C169.124 47.9774 168.671 48.4306 168.112 48.4306Z" fill="#C03A2B"/>
<path d="M172.793 37.8001L170.43 41.8499C170.249 42.1622 169.917 42.355 169.556 42.3561H167.1V37.2939C167.1 36.7348 167.553 36.2815 168.112 36.2815H171.918C172.279 36.2822 172.613 36.4755 172.793 36.7886C172.974 37.1017 172.973 37.4872 172.793 37.8001V37.8001Z" fill="#C03A2B"/>
<path d="M168.112 72.729C167.553 72.729 167.1 72.2757 167.1 71.7166V56.5301C167.1 55.971 167.553 55.5177 168.112 55.5177C168.671 55.5177 169.124 55.971 169.124 56.5301V71.7166C169.124 72.2757 168.671 72.729 168.112 72.729Z" fill="#F29C1F"/>
<path d="M182.286 72.729C181.727 72.729 181.273 72.2757 181.273 71.7166V56.5301C181.273 55.971 181.727 55.5177 182.286 55.5177C182.845 55.5177 183.298 55.971 183.298 56.5301V71.7166C183.298 72.2757 182.845 72.729 182.286 72.729Z" fill="#F29C1F"/>
<path d="M190.385 47.4182H160.012C159.453 47.4182 159 47.8715 159 48.4306V51.4679C159 52.0271 159.453 52.4804 160.012 52.4804H190.385C190.945 52.4804 191.398 52.0271 191.398 51.4679V48.4306C191.398 47.8715 190.945 47.4182 190.385 47.4182Z" fill="#F29C1F"/>
<path d="M165.074 52.4803H171.149V54.5052C171.149 55.6235 170.242 56.5301 169.124 56.5301H167.099C165.981 56.5301 165.074 55.6235 165.074 54.5052V52.4803Z" fill="#F0C419"/>
<path d="M179.249 52.4803H185.323V54.5052C185.323 55.6235 184.417 56.5301 183.298 56.5301H181.273C180.155 56.5301 179.249 55.6235 179.249 54.5052V52.4803Z" fill="#F0C419"/>
</svg>
