<svg width="184" height="97" viewBox="0 0 184 97" fill="none" xmlns="http://www.w3.org/2000/svg">
<path d="M62.339 71.863L41.399 77.5013L20.4586 71.863L15.6265 19.5128H67.1717L62.339 71.863Z" fill="#A9A9A9"/>
<path d="M41.3984 23.7529V73.0041L41.4458 73.017L58.3917 68.4539L62.3031 23.7529H41.3984Z" fill="#DADADA"/>
<path d="M29.5147 11.8213V8.70547H34.0608V5.29596H26.1052V14.9326H34.0608V11.8213H29.5147ZM42.2386 8.70547H45.4169V5.29596H37.4606V8.70547C38.5251 9.76992 39.0802 10.2794 40.6197 11.8189C39.7197 11.8189 37.4606 11.8221 37.4606 11.822V14.9326H45.4169V11.8213L42.2386 8.70547ZM53.5153 8.70547H56.6934V5.29596H48.7368V8.70547C49.8013 9.76992 50.3567 10.2794 51.8962 11.8189C50.9965 11.8189 48.7368 11.8221 48.7368 11.822V14.9326H56.6936V11.8213L53.5153 8.70547Z" fill="#DADADA"/>
<path d="M41.3801 36.8427L26.3926 43.0846L26.8896 49.2645L41.3801 43.0689L56.7941 36.4786L57.4332 30.1568L41.3801 36.8427Z" fill="white"/>
<path d="M26.3923 43.0846L26.8894 49.2645L41.3798 43.0689V36.8427L26.3923 43.0846Z" fill="url(#paint0_linear)"/>
<path d="M57.4333 30.1569L41.3801 36.8426V43.0688L56.7942 36.4786L57.4333 30.1569Z" fill="url(#paint1_linear)"/>
<path d="M26.4155 43.0846L26.9127 49.2645L49.1464 49.3354L48.6491 57.5752L41.3329 59.635L34.2999 57.8592L33.8738 52.7448H27.3389L28.1913 62.6183L41.4039 66.525L54.5449 62.6892L56.2498 43.0846H26.4155Z" fill="url(#paint2_linear)"/>
<path opacity="0.05" d="M41.3801 43.0846H26.3926L26.8896 49.2645L41.3801 49.3108V43.0846ZM41.3801 59.6153L41.309 59.6351L34.277 57.8593L33.8508 52.7449H27.3161L28.1684 62.6185L41.3801 66.5251V59.6153Z" fill="#DADADA"/>
<path d="M25.0432 30.1569H57.4336L56.7946 36.4787H25.8245L25.0432 30.1569Z" fill="url(#paint3_linear)"/>
<path opacity="0.05" d="M41.3805 30.1569H25.0432L25.8245 36.4787H41.3805V30.1569Z" fill="#DADADA"/>
<path d="M183.244 19.4292H131.725L136.555 71.6157L157.481 77.5295L178.408 71.6157L183.244 19.4292Z" fill="#A9A9A9"/>
<path d="M157.481 23.681V73.1071L174.437 68.3206L178.562 23.681H157.481Z" fill="#DADADA"/>
<path d="M170.97 30.0832H144.9L143.084 49.6224L143.122 49.501H165.27L164.548 57.7676L157.481 59.7938L150.31 57.7358L149.881 52.7325H143.372L144.3 62.7304L157.481 66.4591L170.669 62.7304L172.485 43.1074H148.979L149.281 36.5693H165.589L165.833 40.3153H172.4L170.97 30.0832Z" fill="white"/>
<path d="M157.487 30.0832H144.9L143.084 49.6224L143.122 49.501H157.487V43.1276H149.896L150.197 36.5895H157.487V30.0832ZM149.896 52.7325H143.372L144.3 62.7247L157.481 66.4475V59.7996L150.31 57.7358L149.896 52.7325Z" fill="#EBEBEB"/>
<path d="M152.471 11.732H147.885V15.0126H155.752V5.26904H152.471V11.732ZM167.08 5.32107H159.085V8.73176C160.153 9.79543 160.71 10.307 162.282 11.8476H159.085V14.9577H167.08V11.8534L163.883 8.73754H167.08V5.32107Z" fill="#DADADA"/>
<path d="M124.95 38.2756L120.287 90.4783L99.3266 96.2852L78.4238 90.4863L73.7656 38.2756H124.95Z" fill="#A9A9A9"/>
<path d="M99.3579 91.8464L116.295 87.154L120.28 42.5444H99.3579V91.8464Z" fill="#DADADA"/>
<path d="M90.2931 55.3517H99.3579V48.9482H83.2903L83.4436 50.6661L85.0186 68.3123H99.3579V61.9089H90.8788L90.2931 55.3517ZM91.7373 71.5141H85.3049L86.2025 81.5685L99.3284 85.2096L99.3579 85.2016V78.5393L99.3298 78.5467L92.1935 76.6211L91.7373 71.5141Z" fill="#EBEBEB"/>
<path d="M78.5278 24.0869H81.7842V27.302H84.763V24.0869H88.0196V33.8229H84.7632V30.5627H81.7844V33.8229H78.528V24.0869H78.5278ZM92.3016 27.3156H89.4353V24.0869H98.4266V27.3156H95.5585V33.8229H92.3022V27.3156H92.302H92.3016ZM99.8535 24.0869H103.249L105.338 27.5079L107.424 24.0869H110.821V33.8229H107.578V28.9972L105.338 32.4589H105.281L103.04 28.9972V33.8229H99.8535V24.0869ZM112.441 24.0869H115.699V30.6048H120.278V33.8229H112.441V24.0869H112.441Z" fill="#DADADA"/>
<path d="M99.3356 68.3123H107.226L106.482 76.6171L99.3354 78.5447V85.2066L112.472 81.5685L112.568 80.4866L114.074 63.6284L114.23 61.9089H99.3356V68.3123ZM99.3356 55.336V55.3517H114.813L114.942 53.9125L115.234 50.6661L115.387 48.9482H99.3356V55.3362V55.336Z" fill="white"/>
<defs>
<linearGradient id="paint0_linear" x1="33.8861" y1="49.2647" x2="33.8861" y2="36.8429" gradientUnits="userSpaceOnUse">
<stop offset="0.387" stop-color="#D1D3D4" stop-opacity="0"/>
<stop offset="1" stop-color="#D1D3D4"/>
</linearGradient>
<linearGradient id="paint1_linear" x1="49.4066" y1="43.069" x2="49.4066" y2="30.157" gradientUnits="userSpaceOnUse">
<stop offset="0.387" stop-color="#D1D3D4" stop-opacity="0"/>
<stop offset="1" stop-color="#D1D3D4"/>
</linearGradient>
<linearGradient id="paint2_linear" x1="26.4155" y1="54.8049" x2="56.2497" y2="54.8049" gradientUnits="userSpaceOnUse">
<stop stop-color="#E8E7E5"/>
<stop offset="1" stop-color="white"/>
</linearGradient>
<linearGradient id="paint3_linear" x1="25.0432" y1="33.3178" x2="57.4335" y2="33.3178" gradientUnits="userSpaceOnUse">
<stop stop-color="#E8E7E5"/>
<stop offset="1" stop-color="white"/>
</linearGradient>
</defs>
</svg>
