<svg width="184" height="97" viewBox="0 0 184 97" fill="none" xmlns="http://www.w3.org/2000/svg">
<path d="M62.339 72.1622L41.399 77.8005L20.4586 72.1622L15.6265 19.812H67.1717L62.339 72.1622Z" fill="#2062AF"/>
<path d="M41.3984 24.0521V73.3033L41.4458 73.3162L58.3917 68.7531L62.3031 24.0521H41.3984Z" fill="#3C9CD7"/>
<path d="M29.5147 12.1205V9.00466H34.0608V5.59515H26.1052V15.2318H34.0608V12.1205H29.5147ZM42.2386 9.00466H45.4169V5.59515H37.4606V9.00466C38.5251 10.0691 39.0802 10.5786 40.6197 12.1181C39.7197 12.1181 37.4606 12.1213 37.4606 12.1212V15.2318H45.4169V12.1205L42.2386 9.00466ZM53.5153 9.00466H56.6934V5.59515H48.7368V9.00466C49.8013 10.0691 50.3567 10.5786 51.8962 12.1181C50.9965 12.1181 48.7368 12.1213 48.7368 12.1212V15.2318H56.6936V12.1205L53.5153 9.00466Z" fill="#EAEAEA"/>
<path d="M41.3801 37.1419L26.3926 43.3838L26.8896 49.5637L41.3801 43.3681L56.7941 36.7778L57.4332 30.456L41.3801 37.1419Z" fill="white"/>
<path d="M26.3923 43.3838L26.8894 49.5637L41.3798 43.3681V37.1419L26.3923 43.3838Z" fill="url(#paint0_linear)"/>
<path d="M57.4333 30.4561L41.3801 37.1418V43.368L56.7942 36.7777L57.4333 30.4561Z" fill="url(#paint1_linear)"/>
<path d="M26.4155 43.3838L26.9127 49.5637L49.1464 49.6346L48.6491 57.8744L41.3329 59.9341L34.2999 58.1584L33.8738 53.044H27.3389L28.1913 62.9175L41.4039 66.8242L54.5449 62.9884L56.2498 43.3838H26.4155Z" fill="url(#paint2_linear)"/>
<path opacity="0.05" d="M41.3801 43.3838H26.3926L26.8896 49.5637L41.3801 49.61V43.3838ZM41.3801 59.9145L41.309 59.9343L34.277 58.1585L33.8508 53.0441H27.3161L28.1684 62.9177L41.3801 66.8243V59.9145Z" fill="#3C9CD7"/>
<path d="M25.0432 30.4561H57.4336L56.7946 36.7779H25.8245L25.0432 30.4561Z" fill="url(#paint3_linear)"/>
<path opacity="0.05" d="M41.3805 30.4561H25.0432L25.8245 36.7779H41.3805V30.4561Z" fill="#3C9CD7"/>
<path d="M183.244 19.7284H131.725L136.555 71.9149L157.481 77.8286L178.408 71.9149L183.244 19.7284Z" fill="#E5A321"/>
<path d="M157.481 23.9802V73.4063L174.437 68.6198L178.562 23.9802H157.481Z" fill="#F0BF20"/>
<path d="M170.97 30.3824H144.9L143.084 49.9216L143.122 49.8002H165.27L164.548 58.0668L157.481 60.093L150.31 58.035L149.881 53.0317H143.372L144.3 63.0296L157.481 66.7583L170.669 63.0296L172.485 43.4066H148.979L149.281 36.8685H165.589L165.833 40.6145H172.4L170.97 30.3824Z" fill="white"/>
<path d="M157.487 30.3824H144.9L143.084 49.9216L143.122 49.8002H157.487V43.4268H149.896L150.197 36.8887H157.487V30.3824ZM149.896 53.0317H143.372L144.3 63.0239L157.481 66.7467V60.0988L150.31 58.035L149.896 53.0317Z" fill="#EBEBEB"/>
<path d="M152.471 12.0312H147.885V15.3118H155.752V5.56824H152.471V12.0312ZM167.08 5.62026H159.085V9.03096C160.153 10.0946 160.71 10.6062 162.282 12.1468H159.085V15.2569H167.08V12.1526L163.883 9.03674H167.08V5.62026Z" fill="#DADADA"/>
<path d="M124.95 38.5748L120.287 90.7775L99.3266 96.5844L78.4238 90.7855L73.7656 38.5748H124.95Z" fill="#E44D26"/>
<path d="M99.3579 92.1456L116.295 87.4532L120.28 42.8436H99.3579V92.1456Z" fill="#F16529"/>
<path d="M90.2931 55.6509H99.3579V49.2474H83.2903L83.4436 50.9653L85.0186 68.6115H99.3579V62.2081H90.8788L90.2931 55.6509ZM91.7373 71.8133H85.3049L86.2025 81.8677L99.3284 85.5088L99.3579 85.5008V78.8385L99.3298 78.8459L92.1935 76.9203L91.7373 71.8133Z" fill="#EBEBEB"/>
<path d="M78.5278 24.3861H81.7842V27.6012H84.763V24.3861H88.0196V34.1221H84.7632V30.8619H81.7844V34.1221H78.528V24.3861H78.5278ZM92.3016 27.6148H89.4353V24.3861H98.4266V27.6148H95.5585V34.1221H92.3022V27.6148H92.302H92.3016ZM99.8535 24.3861H103.249L105.338 27.8071L107.424 24.3861H110.821V34.1221H107.578V29.2964L105.338 32.7581H105.281L103.04 29.2964V34.1221H99.8535V24.3861ZM112.441 24.3861H115.699V30.904H120.278V34.1221H112.441V24.3861H112.441Z" fill="#EAEAEA"/>
<path d="M99.3356 68.6115H107.226L106.482 76.9163L99.3354 78.8439V85.5058L112.472 81.8677L112.568 80.7858L114.074 63.9276L114.23 62.2081H99.3356V68.6115ZM99.3356 55.6352V55.6509H114.813L114.942 54.2117L115.234 50.9653L115.387 49.2474H99.3356V55.6354V55.6352Z" fill="white"/>
<defs>
<linearGradient id="paint0_linear" x1="33.8861" y1="49.5639" x2="33.8861" y2="37.1421" gradientUnits="userSpaceOnUse">
<stop offset="0.387" stop-color="#D1D3D4" stop-opacity="0"/>
<stop offset="1" stop-color="#D1D3D4"/>
</linearGradient>
<linearGradient id="paint1_linear" x1="49.4066" y1="43.3682" x2="49.4066" y2="30.4562" gradientUnits="userSpaceOnUse">
<stop offset="0.387" stop-color="#D1D3D4" stop-opacity="0"/>
<stop offset="1" stop-color="#D1D3D4"/>
</linearGradient>
<linearGradient id="paint2_linear" x1="26.4155" y1="55.1041" x2="56.2497" y2="55.1041" gradientUnits="userSpaceOnUse">
<stop stop-color="#E8E7E5"/>
<stop offset="1" stop-color="white"/>
</linearGradient>
<linearGradient id="paint3_linear" x1="25.0432" y1="33.617" x2="57.4335" y2="33.617" gradientUnits="userSpaceOnUse">
<stop stop-color="#E8E7E5"/>
<stop offset="1" stop-color="white"/>
</linearGradient>
</defs>
</svg>
