<svg width="209" height="87" viewBox="0 0 209 87" fill="none" xmlns="http://www.w3.org/2000/svg">
<path d="M129.644 54.4679V33.7676H130.767V37.0238C130.9 36.8794 131.022 36.726 131.133 36.5648C132.071 34.6192 134.049 33.3913 136.209 33.4155C138.769 33.3392 140.849 34.2868 142.071 36.5648C142.849 37.98 143.277 39.5607 143.32 41.1751C143.363 42.7894 143.018 44.3905 142.316 45.8446C141.177 48.3975 138.363 49.6667 135.352 49.2005C134.414 49.1208 133.512 48.8077 132.727 48.2895C131.942 47.7714 131.299 47.0649 130.857 46.2345V54.467L129.644 54.4679ZM130.767 41.0902L131.018 43.5209C131.462 46.2875 133.098 47.9223 135.666 48.2295C136.872 48.4278 138.109 48.2017 139.167 47.5897C140.225 46.9778 141.038 46.0179 141.468 44.8736C142.467 42.4933 142.393 39.7985 141.27 37.4738C140.812 36.4481 140.032 35.5994 139.049 35.0561C138.065 34.5127 136.932 34.3042 135.82 34.462C134.776 34.5379 133.781 34.9372 132.974 35.6043C132.167 36.2713 131.588 37.1731 131.318 38.1843C131.078 39.1413 130.895 40.1112 130.767 41.0893V41.0902ZM166.246 43.9035C166.076 45.361 165.382 46.707 164.294 47.6913C163.205 48.6755 161.797 49.231 160.329 49.2544C155.621 49.4916 153.411 46.3647 153.06 42.7565C152.816 40.797 153.134 38.8084 153.977 37.0229C154.564 35.798 155.525 34.7918 156.722 34.15C157.919 33.5082 159.29 33.2642 160.635 33.4532C161.913 33.5619 163.125 34.07 164.099 34.9055C165.073 35.741 165.76 36.8617 166.062 38.1089C166.301 39.245 166.477 40.3936 166.589 41.5492H154.223C153.994 44.8206 155.752 47.4507 158.244 48.0849C161.347 48.8484 164 47.5037 164.963 44.553C165.176 43.7957 165.566 43.6888 166.254 43.9035H166.246ZM154.214 40.5018H165.275C165.206 37.0166 163.036 34.4835 160.092 34.4548C156.769 34.4009 154.359 36.8325 154.214 40.5018ZM168.532 43.9799H169.616C169.656 44.7786 169.916 45.5509 170.366 46.2118C170.816 46.8726 171.44 47.3964 172.169 47.7256C173.084 48.1375 174.081 48.3376 175.084 48.3112C176.087 48.2847 177.072 48.0324 177.964 47.5729C178.45 47.3539 178.858 46.9909 179.131 46.5329C179.404 46.0749 179.531 45.544 179.493 45.012C179.521 44.4989 179.381 43.9906 179.094 43.5643C178.807 43.138 178.389 42.8168 177.903 42.6496C176.71 42.2058 175.442 41.9615 174.226 41.5717C172.962 41.2116 171.725 40.7595 170.526 40.2189C168.568 39.2631 168.447 35.5408 170.664 34.3623C171.799 33.7217 173.076 33.3756 174.38 33.3556C175.683 33.3355 176.97 33.642 178.125 34.2473C179.556 35.0378 180.348 36.634 180.112 38.2535H179.183C179.183 38.2086 179.098 38.1691 179.098 38.1233C178.983 35.159 176.492 34.232 173.817 34.4925C173.008 34.5823 172.242 34.8267 171.523 35.1878C171.091 35.385 170.731 35.7117 170.493 36.1225C170.255 36.5334 170.15 37.0081 170.194 37.481C170.195 37.9543 170.342 38.4156 170.616 38.8016C170.89 39.1877 171.276 39.4794 171.723 39.6368C172.891 40.0653 174.13 40.3401 175.338 40.6761L178.258 41.4396C178.921 41.6574 179.503 42.0715 179.926 42.6271C180.349 43.1827 180.594 43.8536 180.627 44.5512C180.861 46.1186 180.061 47.6591 178.647 48.3732C176.095 49.8176 171.89 49.4359 170.017 47.6097C169.059 46.6459 168.524 45.3371 168.535 43.979L168.532 43.9799ZM194.384 38.2544H193.367C193.367 38.117 193.313 37.9849 193.298 37.8798C193.282 37.1176 193.004 36.3842 192.511 35.8025C192.018 35.2208 191.341 34.8261 190.592 34.6847C189.178 34.2794 187.671 34.3521 186.303 34.8913C185.762 35.0461 185.286 35.3718 184.946 35.8196C184.606 36.2675 184.419 36.8134 184.415 37.3759C184.396 37.9282 184.568 38.4702 184.902 38.9104C185.236 39.3505 185.712 39.6617 186.249 39.7913L190.897 40.9842C191.4 41.1047 191.894 41.2553 192.379 41.4351C193.861 41.9741 194.867 43.3502 194.912 44.923C194.934 45.6929 194.723 46.4515 194.306 47.0992C193.89 47.7468 193.287 48.2533 192.577 48.552C191.498 49.042 190.329 49.3012 189.144 49.3131C187.959 49.3251 186.785 49.0894 185.697 48.6211C184.802 48.2352 184.047 47.5843 183.533 46.7561C183.019 45.9279 182.771 44.9622 182.823 43.9889H183.816C184.19 45.7899 185.427 47.2899 187.123 47.9996C188.82 48.7092 190.758 48.5349 192.301 47.5361C192.764 47.2953 193.148 46.9269 193.408 46.4744C193.668 46.022 193.794 45.5045 193.769 44.9832C193.792 44.4698 193.647 43.9628 193.355 43.5392C193.064 43.1156 192.643 42.7986 192.155 42.6361C190.962 42.1923 189.694 41.9561 188.479 41.5582C187.207 41.2037 185.963 40.7566 184.756 40.2207C182.845 39.2802 182.692 35.5884 184.871 34.4108C186.021 33.7434 187.323 33.3848 188.652 33.37C189.981 33.3552 191.291 33.6847 192.454 34.3263C193.12 34.7236 193.656 35.3058 193.997 36.0021C194.337 36.6984 194.468 37.4788 194.373 38.2481L194.384 38.2544ZM127.796 48.8807C127.396 49.0321 126.954 49.0317 126.554 48.8796C126.154 48.7275 125.824 48.4343 125.625 48.0552L121.673 42.5894L121.1 41.8259L116.513 48.0633C116.327 48.4261 116.014 48.7084 115.634 48.8575C115.254 49.0066 114.833 49.0123 114.449 48.8736L120.358 40.9465L114.861 33.7838C115.676 33.4892 116.585 33.8089 117.039 34.5473L121.135 40.0806L125.255 34.5689C125.444 34.2123 125.756 33.9375 126.134 33.7965C126.512 33.6556 126.928 33.6584 127.304 33.8045L125.171 36.6349L122.281 40.3958C122.201 40.4675 122.137 40.5552 122.093 40.6534C122.049 40.7515 122.026 40.8578 122.026 40.9653C122.026 41.0729 122.049 41.1792 122.093 41.2773C122.137 41.3755 122.201 41.4632 122.281 41.5348L127.785 48.8807H127.796ZM152.885 33.7074V34.7853C152.111 34.7346 151.336 34.8466 150.609 35.114C149.882 35.3814 149.219 35.7983 148.663 36.3379C148.107 36.8774 147.67 37.5275 147.381 38.2463C147.091 38.965 146.956 39.7365 146.983 40.5108C146.983 43.0283 146.983 45.5458 146.983 48.0633V48.9194H145.89V33.7748H146.968V36.8783C148.29 34.6147 150.331 33.7748 152.892 33.7137L152.885 33.7074ZM100.301 40.8477L100.782 38.47C102.105 33.7685 107.494 31.8121 111.202 34.7243C113.373 36.4292 113.915 38.8446 113.809 41.5663H101.577C101.38 46.4276 104.887 49.3631 109.374 47.8648C110.853 47.3259 111.966 46.0971 112.332 44.57C112.569 43.8065 112.961 43.6754 113.678 43.8963C113.558 44.827 113.229 45.7185 112.715 46.5038C112.202 47.289 111.517 47.9475 110.712 48.4298C109.382 49.1571 107.856 49.4452 106.353 49.2531C104.849 49.0609 103.445 48.3983 102.341 47.36C101.249 46.1321 100.589 44.5799 100.461 42.9406C100.461 42.6711 100.371 42.4196 100.308 42.1771C100.302 41.7238 100.299 41.2806 100.299 40.8477H100.301ZM101.593 40.5189H112.654C112.584 36.9951 110.36 34.4952 107.394 34.4719C104.092 34.4269 101.73 36.872 101.584 40.5036L101.593 40.5189Z" fill="#DADADA"/>
<path d="M41.2159 10.6612C42.7499 9.78158 44.7481 9.7776 46.2808 10.6612C53.9919 15.0262 61.7055 19.3843 69.4153 23.7519C70.8654 24.5702 71.8353 26.1869 71.8206 27.8608V54.122C71.8314 55.8652 70.7656 57.5206 69.2357 58.3203C61.5499 62.6612 53.8681 67.0074 46.1836 71.3483C44.6178 72.2452 42.5796 72.1761 41.0627 71.2057C38.7585 69.8676 36.4504 68.5361 34.146 67.1992C33.6751 66.918 33.1443 66.6942 32.8118 66.2368C33.1057 65.8399 33.6312 65.7905 34.0583 65.6172C35.0201 65.3108 35.9035 64.819 36.7871 64.3417C37.0105 64.1885 37.2833 64.2473 37.4975 64.3843C39.4678 65.5161 41.4208 66.6807 43.3978 67.8017C43.8195 68.0456 44.2466 67.7217 44.607 67.5204C52.1492 63.2502 59.7005 58.996 67.2413 54.7244C67.5207 54.5898 67.6752 54.2927 67.6525 53.9861C67.6577 45.323 67.6538 36.6585 67.6551 27.9955C67.6871 27.6476 67.4861 27.3277 67.1721 27.1853C59.513 22.8643 51.8578 18.5367 44.2001 14.2145C44.0674 14.1231 43.9102 14.0741 43.7492 14.0739C43.5882 14.0736 43.4309 14.1222 43.298 14.2132C35.6402 18.5367 27.9863 22.8683 20.3286 27.1891C20.0157 27.3317 19.8057 27.6462 19.8429 27.9955C19.8442 36.6585 19.8429 45.323 19.8429 53.9874C19.8296 54.137 19.8624 54.2871 19.9369 54.4174C20.0114 54.5478 20.1239 54.6522 20.2594 54.7165C22.3029 55.8774 24.349 57.0301 26.3939 58.187C27.5459 58.8082 28.9603 59.1773 30.2295 58.7013C31.3495 58.2989 32.1346 57.1539 32.1133 55.9626C32.1238 47.3501 32.108 38.7363 32.1212 30.1252C32.0932 29.7428 32.4552 29.427 32.8263 29.4629C33.8082 29.4563 34.7914 29.4497 35.7733 29.4656C36.1831 29.4563 36.4652 29.868 36.4145 30.2532C36.4105 38.9202 36.4251 47.5874 36.4079 56.2544C36.4105 58.5643 35.4632 61.0776 33.3305 62.2078C30.703 63.5714 27.4555 63.2822 24.8598 61.9747C22.6127 60.8511 20.4683 59.5252 18.261 58.3214C16.7272 57.5261 15.6666 55.8641 15.6774 54.1223V27.8608C15.6614 26.1523 16.6699 24.5062 18.1652 23.6998C25.8496 19.3554 33.5327 15.0076 41.2159 10.6612Z" fill="#3C873A"/>
<path d="M47.9198 28.8525C51.2714 28.6364 54.8593 28.7245 57.8752 30.3785C60.2103 31.646 61.5048 34.3062 61.546 36.905C61.4808 37.2555 61.115 37.4489 60.781 37.4248C59.8086 37.4235 58.8359 37.438 57.8635 37.4182C57.451 37.4341 57.2113 37.0531 57.1595 36.6877C56.8801 35.4443 56.2032 34.2128 55.0349 33.613C53.2415 32.7135 51.1621 32.7588 49.2065 32.7775C47.7788 32.8535 46.2437 32.9773 45.0342 33.8183C44.1056 34.4554 43.8236 35.7414 44.155 36.7771C44.4674 37.5208 45.3244 37.7608 46.0255 37.982C50.0645 39.0402 54.3446 38.9349 58.3064 40.3276C59.9467 40.8953 61.5513 41.999 62.1128 43.7195C62.8472 46.0253 62.5252 48.7815 60.8876 50.6327C59.5596 52.156 57.6253 52.9851 55.6962 53.4354C53.1298 54.0087 50.4664 54.0233 47.8601 53.7688C45.4094 53.4889 42.8591 52.8438 40.9672 51.1711C39.3494 49.7638 38.5592 47.5712 38.6376 45.455C38.6564 45.0976 39.0116 44.8484 39.3533 44.8777C40.3326 44.8698 41.3118 44.8671 42.291 44.879C42.6821 44.851 42.9721 45.1896 42.9922 45.5589C43.1729 46.7436 43.6173 47.9871 44.6485 48.6895C46.6387 49.9757 49.136 49.8877 51.4148 49.9237C53.3028 49.8398 55.4221 49.8144 56.9628 48.5643C57.7756 47.8513 58.0165 46.6584 57.7968 45.6322C57.5588 44.7658 56.654 44.3621 55.8771 44.098C51.8899 42.8345 47.562 43.293 43.6133 41.8641C42.0103 41.2966 40.4601 40.2236 39.8443 38.5738C38.9849 36.2388 39.3787 33.3506 41.188 31.5619C42.9521 29.7827 45.4986 29.0975 47.9198 28.8523V28.8525Z" fill="#3C873A"/>
</svg>
