<svg width="230" height="111" viewBox="0 0 230 111" fill="none" xmlns="http://www.w3.org/2000/svg">
<path d="M29.5391 61.2031C29.5391 56.879 33.0567 53.3613 37.3809 53.3613H61.6191C63.5846 53.3613 65.1836 51.7623 65.1836 49.7969V29.6934C65.1836 23.797 60.3866 19 54.4902 19H44.5098C38.6134 19 33.8164 23.797 33.8164 29.6934V35.5391H49.5C50.6813 35.5391 51.6387 36.4965 51.6387 37.6777C51.6387 38.859 50.6813 39.8164 49.5 39.8164H23.6934C17.797 39.8164 13 44.6134 13 50.5098V60.4902C13 66.3866 17.797 71.1836 23.6934 71.1836H29.5391V61.2031ZM44.5098 29.8359C43.3285 29.8359 42.3711 28.8785 42.3711 27.6973C42.3711 26.516 43.3285 25.5586 44.5098 25.5586C45.691 25.5586 46.6484 26.516 46.6484 27.6973C46.6484 28.8785 45.691 29.8359 44.5098 29.8359Z" fill="#306998"/>
<path d="M75.3066 39.8164H69.4609V49.7969C69.4609 54.121 65.9433 57.6387 61.6191 57.6387H37.3809C35.4154 57.6387 33.8164 59.2377 33.8164 61.2031V81.3066C33.8164 87.203 38.6134 92 44.5098 92H54.4902C60.3866 92 65.1836 87.203 65.1836 81.3066V75.4609H49.5C48.3187 75.4609 47.3613 74.5035 47.3613 73.3223C47.3613 72.141 48.3187 71.1836 49.5 71.1836H75.3066C81.203 71.1836 86 66.3866 86 60.4902V50.5098C86 44.6134 81.203 39.8164 75.3066 39.8164ZM54.4902 81.1641C55.6715 81.1641 56.6289 82.1215 56.6289 83.3027C56.6289 84.484 55.6715 85.4414 54.4902 85.4414C53.309 85.4414 52.3516 84.484 52.3516 83.3027C52.3516 82.1215 53.309 81.1641 54.4902 81.1641Z" fill="#FFD43B"/>
<path d="M118.686 38H124.106V63.0882C121.326 63.6164 119.285 63.8275 117.067 63.8275C110.449 63.8275 107 60.8363 107 55.0992C107 49.5731 110.66 45.9837 116.327 45.9837C117.207 45.9837 117.875 46.0537 118.684 46.2648L118.686 38ZM118.686 50.6294C118.053 50.4184 117.525 50.3483 116.857 50.3483C114.111 50.3483 112.527 52.037 112.527 54.9941C112.527 57.8801 114.041 59.4638 116.821 59.4638C117.445 59.4626 118.069 59.4158 118.686 59.3236V50.6294ZM132.73 46.3717V58.9365C132.73 63.2661 132.412 65.341 131.472 67.1375C130.592 68.8622 129.43 69.9536 127.037 71.15L122.004 68.7562C124.398 67.6298 125.559 66.6453 126.298 65.1308C127.072 63.5823 127.319 61.7875 127.319 57.0708V46.3816L132.73 46.3717ZM127.31 38.0314H132.73V43.6006H127.31V38.0314ZM136.003 47.6032C138.397 46.4768 140.674 45.9846 143.183 45.9846C145.964 45.9846 147.794 46.7238 148.604 48.1673C149.053 48.9758 149.202 50.033 149.202 52.2858V63.3083C146.773 63.6604 143.711 63.9065 141.459 63.9065C136.919 63.9065 134.877 62.322 134.877 58.8027C134.877 55.0012 137.587 53.2335 144.24 52.6784V51.4819C144.24 50.4965 143.746 50.1345 142.374 50.1345C140.368 50.1345 138.116 50.6977 136.004 51.7891V47.6005L136.003 47.6032ZM144.485 56.2265C140.895 56.5786 139.724 57.1427 139.724 58.5493C139.724 59.6048 140.393 60.0979 141.88 60.0979C142.689 60.0979 143.429 60.0279 144.485 59.8518V56.2265ZM151.851 47.217C155.053 46.3726 157.693 45.9864 160.368 45.9864C163.148 45.9864 165.156 46.6196 166.352 47.852C167.479 49.0135 167.83 50.28 167.83 52.9901V63.6191H162.41V53.1993C162.41 51.1226 161.705 50.3483 159.769 50.3483C159.03 50.3483 158.361 50.4184 157.27 50.7345V63.6155H151.841L151.851 47.217ZM169.928 66.5743C171.829 67.5597 173.729 68.0169 175.735 68.0169C179.29 68.0169 180.803 66.5743 180.803 63.125V63.0191C179.748 63.5463 178.692 63.7583 177.284 63.7583C172.523 63.7583 169.505 60.6261 169.505 55.6633C169.505 49.503 173.976 46.0196 181.894 46.0196C184.217 46.0196 186.364 46.2657 188.968 46.7939L187.113 50.704C185.669 50.4228 186.996 50.6663 185.906 50.5603V51.1235L185.976 53.4104L186.012 56.3675C186.048 57.1067 186.048 57.846 186.084 58.5844V60.0629C186.084 64.7087 185.698 66.8896 184.535 68.6861C182.847 71.327 179.925 72.6384 175.771 72.6384C173.66 72.6384 171.83 72.3214 169.929 71.5821V66.5842L169.928 66.5743ZM180.707 50.3842H180.144C179.088 50.3483 177.857 50.6303 177.012 51.1585C175.709 51.8978 175.041 53.2353 175.041 55.136C175.041 57.846 176.388 59.3937 178.772 59.3937C179.512 59.3937 180.12 59.2527 180.813 59.0416V57.1759C180.813 56.5426 180.777 55.8285 180.777 55.0992L180.741 52.6002L180.705 50.8055V50.3833L180.707 50.3842ZM197.382 45.9145C202.802 45.9145 206.111 49.3279 206.111 54.8548C206.111 60.5138 202.661 64.0763 197.17 64.0763C191.75 64.0763 188.406 60.6629 188.406 55.1719C188.406 49.4698 191.855 45.9154 197.381 45.9154L197.382 45.9145ZM197.276 59.7117C199.353 59.7117 200.585 57.987 200.585 54.9959C200.585 52.0316 199.389 50.28 197.312 50.28C195.156 50.28 193.933 52.0047 193.933 54.9959C193.933 57.987 195.165 59.7117 197.276 59.7117Z" fill="#DADADA"/>
</svg>
