<svg width="157" height="67" viewBox="0 0 157 67" fill="none" xmlns="http://www.w3.org/2000/svg">
<path d="M37.9307 40.4277C41.6327 40.4277 44.6338 37.4266 44.6338 33.7246C44.6338 30.0226 41.6327 27.0215 37.9307 27.0215C34.2286 27.0215 31.2275 30.0226 31.2275 33.7246C31.2275 37.4266 34.2286 40.4277 37.9307 40.4277Z" fill="#61DBFB"/>
<path fill-rule="evenodd" clip-rule="evenodd" d="M37.9307 20.0958C46.9306 20.0958 55.2912 21.3872 61.5951 23.5574C69.1904 26.1723 73.8603 30.1357 73.8603 33.7247C73.8603 37.4646 68.9111 41.6752 60.7548 44.3776C54.5884 46.4206 46.4739 47.4871 37.9307 47.4871C29.1717 47.4871 20.8773 46.4861 14.6414 44.3552C6.75193 41.6585 2 37.3934 2 33.7247C2 30.1649 6.45877 26.232 13.9473 23.6212C20.2747 21.4151 28.8418 20.0958 37.9295 20.0958H37.9307Z" stroke="#61DBFB" stroke-width="2.73408"/>
<path fill-rule="evenodd" clip-rule="evenodd" d="M26.0666 26.9493C30.5628 19.1531 35.858 12.5557 40.8873 8.17894C46.9468 2.90564 52.7133 0.840468 55.8221 2.6332C59.0621 4.50155 60.2371 10.8926 58.5034 19.308C57.194 25.6705 54.0628 33.2324 49.7948 40.6331C45.4189 48.2209 40.4083 54.906 35.4475 59.2421C29.1702 64.7295 23.1014 66.7153 19.9233 64.8825C16.8395 63.1054 15.6602 57.277 17.1396 49.4855C18.3895 42.9022 21.5265 34.8217 26.0651 26.9492L26.0666 26.9493Z" stroke="#61DBFB" stroke-width="2.73408"/>
<path fill-rule="evenodd" clip-rule="evenodd" d="M26.0776 40.6531C21.5687 32.8657 18.4989 24.9817 17.2175 18.4388C15.675 10.5554 16.7656 4.528 19.8717 2.73006C23.1084 0.856225 29.2322 3.02989 35.6571 8.73477C40.5148 13.0479 45.503 19.5359 49.7834 26.9297C54.1719 34.5101 57.461 42.19 58.7405 48.6533C60.3595 56.8323 59.0491 63.0817 55.874 64.9197C52.7932 66.7032 47.1556 64.815 41.1442 59.6419C36.065 55.2713 30.631 48.5179 26.0776 40.653V40.6531Z" stroke="#61DBFB" stroke-width="2.73408"/>
<path d="M86 5L121.481 66.2047L156.962 5H142.77L121.481 41.7228L100.015 5H86Z" fill="#41B883"/>
<path d="M100.263 5L121.729 41.9003L143.018 5H129.89L121.729 19.1924L113.391 5H100.263Z" fill="#34495E"/>
</svg>
